<svg width="33" height="32" viewBox="0 0 33 32" fill="none" xmlns="http://www.w3.org/2000/svg">
<rect x="0.5" width="32" height="32" rx="16" fill="#7A838C"/>
<g clip-path="url(#clip0_50_386)">
<path d="M16.3105 11.8711C17.1941 11.8711 17.9693 11.526 18.636 10.8359C19.3027 10.1458 19.6361 9.34324 19.6361 8.42836C19.6361 8.32788 19.6281 8.18509 19.6123 8C19.4959 8.01587 19.4086 8.02909 19.3504 8.03966C18.5355 8.15601 17.8185 8.55528 17.1994 9.23747C16.5803 9.91968 16.2708 10.6495 16.2708 11.4269C16.2708 11.5168 16.284 11.6649 16.3105 11.8711ZM19.4773 24C20.107 24 20.8028 23.569 21.5648 22.707C22.3268 21.845 22.9088 20.8323 23.3109 19.6688C21.8135 18.8967 21.0647 17.7888 21.0647 16.3451C21.0647 15.1393 21.6706 14.1081 22.8823 13.2514C22.041 12.199 20.9298 11.6728 19.5488 11.6728C18.9667 11.6728 18.435 11.76 17.9534 11.9346L17.6518 12.0456L17.247 12.2043C16.9825 12.3047 16.7417 12.355 16.5248 12.355C16.3554 12.355 16.1332 12.2968 15.8581 12.1805L15.5485 12.0535L15.2548 11.9346C14.8262 11.7547 14.3659 11.6648 13.8738 11.6648C12.5563 11.6648 11.498 12.1091 10.699 12.9975C9.89998 13.886 9.50049 15.0573 9.50049 16.5116C9.50049 18.5582 10.1407 20.4489 11.4213 22.1834C12.3102 23.3945 13.1224 24 13.8579 24C14.1701 24 14.4797 23.9392 14.7866 23.8175L15.1755 23.6589L15.485 23.5478C15.9189 23.3945 16.3184 23.3178 16.6835 23.3178C17.0698 23.3178 17.5143 23.4156 18.0169 23.6113L18.263 23.7065C18.7762 23.9022 19.181 24 19.4773 24Z" fill="white"/>
</g>
<defs>
<clipPath id="clip0_50_386">
<rect width="13.8112" height="16" fill="white" transform="translate(9.5 8)"/>
</clipPath>
</defs>
</svg>
