<svg width="20" height="20" viewBox="0 0 20 20" fill="none" xmlns="http://www.w3.org/2000/svg">
<path fill-rule="evenodd" clip-rule="evenodd" d="M20.0001 10C20.0001 15.52 15.5101 20 10.0001 20L9.72033 19.9962C4.32951 19.8478 9.15527e-05 15.4264 9.15527e-05 10C9.15527e-05 4.49 4.48009 0 10.0001 0C15.5101 0 20.0001 4.49 20.0001 10ZM8.02009 6C7.73009 6.3 7.73009 6.77 8.03009 7.06L10.9801 10L8.03009 12.94C7.73009 13.23 7.73009 13.71 8.02009 14C8.32009 14.3 8.79009 14.3 9.08009 14L12.5701 10.53C12.7101 10.39 12.7901 10.2 12.7901 10C12.7901 9.8 12.7101 9.61 12.5701 9.47L9.08009 6C8.94009 5.85 8.75009 5.78 8.56009 5.78C8.36009 5.78 8.17009 5.85 8.02009 6Z" fill="white"/>
</svg>
