<svg width="15" height="14" viewBox="0 0 15 14" fill="none" xmlns="http://www.w3.org/2000/svg">
<path d="M13.8354 8.14819L3.97516 8.14819L7.82609 11.9681C8.2764 12.4339 8.2764 13.1637 7.82609 13.6296C7.37578 14.0799 6.63043 14.0799 6.18012 13.6296L0.326087 7.80657C-0.108696 7.37179 -0.108696 6.59539 0.326087 6.16061L6.18012 0.337626C6.63043 -0.112685 7.37578 -0.112685 7.82609 0.337626C8.04348 0.570545 8.1677 0.867129 8.1677 1.16061C8.1677 1.45564 8.04348 1.7662 7.82609 1.98359L3.97515 5.81899L13.8354 5.81899C14.4876 5.81899 15 6.33141 15 6.98359C15 7.62023 14.4876 8.14819 13.8354 8.14819Z" fill="#22313F"/>
</svg>
