<svg width="25" height="24" viewBox="0 0 25 24" fill="none" xmlns="http://www.w3.org/2000/svg">
<g id="Iconly/Bulk/Chat">
<g id="Chat">
<path id="Fill 1" opacity="0.4" d="M12.52 2C6.71 2 2.5 6.74 2.5 12C2.5 13.68 2.99 15.41 3.85 16.99C4.01 17.25 4.03 17.58 3.92 17.89L3.25 20.13C3.1 20.67 3.56 21.07 4.07 20.91L6.09 20.31C6.64 20.13 7.07 20.36 7.581 20.67C9.041 21.53 10.86 21.97 12.5 21.97C17.46 21.97 22.5 18.14 22.5 11.97C22.5 6.65 18.2 2 12.52 2Z" fill="#7A56FE"/>
<path id="Combined Shape" fill-rule="evenodd" clip-rule="evenodd" d="M12.4805 13.2901C11.7705 13.2801 11.2005 12.7101 11.2005 12.0001C11.2005 11.3001 11.7805 10.7201 12.4805 10.7301C13.1905 10.7301 13.7605 11.3001 13.7605 12.0101C13.7605 12.7101 13.1905 13.2901 12.4805 13.2901ZM7.87009 13.2901C7.17009 13.2901 6.59009 12.7101 6.59009 12.0101C6.59009 11.3001 7.16009 10.7301 7.87009 10.7301C8.58009 10.7301 9.15009 11.3001 9.15009 12.0101C9.15009 12.7101 8.58009 13.2801 7.87009 13.2901ZM15.8103 12.0101C15.8103 12.7101 16.3803 13.2901 17.0903 13.2901C17.8003 13.2901 18.3703 12.7101 18.3703 12.0101C18.3703 11.3001 17.8003 10.7301 17.0903 10.7301C16.3803 10.7301 15.8103 11.3001 15.8103 12.0101Z" fill="#7A56FE"/>
</g>
</g>
</svg>
