<svg width="40" height="40" viewBox="0 0 40 40" fill="none" xmlns="http://www.w3.org/2000/svg">
<g clip-path="url(#clip0_50_552)">
<path d="M37.015 6.896H2.99277C1.34401 6.896 0 8.23219 0 9.88877V30.1115C0 31.768 1.34401 33.1042 2.99277 33.1042H37.0072C38.6638 33.1042 40 31.7602 40 30.1115V9.88877C40.0078 8.23219 38.6638 6.896 37.015 6.896Z" fill="#FF4B55"/>
<path d="M20.3242 12.1858L22.1683 17.7182L27.9976 17.7651C28.3258 17.7651 28.4586 18.187 28.193 18.3746L23.5045 21.8362L25.2627 27.392C25.3643 27.7045 25.0048 27.9624 24.7392 27.767L20.0039 24.3836L15.2608 27.7748C14.9951 27.9624 14.6434 27.7045 14.7372 27.3998L16.4954 21.844L11.807 18.3824C11.5413 18.187 11.6819 17.7729 12.0023 17.7729L17.8316 17.726L19.6757 12.1937C19.7851 11.8733 20.2227 11.8733 20.3242 12.1858Z" fill="#FFE15A"/>
</g>
<defs>
<clipPath id="clip0_50_552">
<rect width="40" height="40" fill="white"/>
</clipPath>
</defs>
</svg>
