<svg width="31" height="30" viewBox="0 0 31 30" fill="none" xmlns="http://www.w3.org/2000/svg">
<path fill-rule="evenodd" clip-rule="evenodd" d="M15.6528 6.02582C17.7433 6.05412 19.6665 6.81146 21.1687 8.05C21.2164 8.08906 21.2667 8.12285 21.3189 8.1514C21.6843 8.35127 22.1429 8.29453 22.4437 7.99375L25.1375 5.3C25.5312 4.90625 25.5 4.2625 25.0812 3.9C22.9684 2.05964 20.3313 0.819688 17.4377 0.437503C16.8132 0.355031 16.1769 0.312501 15.5312 0.3125C15.5312 0.3125 15.5312 0.3125 15.5312 0.3125C10.1375 0.3125 5.41877 3.24998 2.90001 7.6187L2.9 7.61869C1.65 9.76244 0.9375 12.2499 0.9375 14.9062C0.9375 17.5624 1.65 20.0499 2.9 22.1937L7.85 19.3437C7.0875 18.0374 6.65 16.5249 6.65 14.9062C6.65 13.2875 7.09374 11.775 7.84997 10.4687L7.84998 10.4688C9.38748 7.81875 12.25 6.025 15.5312 6.025C15.5312 6.025 15.5312 6.025 15.5312 6.025C15.5396 6.025 15.5479 6.02501 15.5563 6.02503C15.5885 6.02512 15.6206 6.02539 15.6528 6.02582ZM17.1188 12.3687H29.0251C29.4813 12.3687 29.8751 12.6999 29.9626 13.1562C30.0688 13.7499 30.1251 14.2812 30.1251 15.0249C30.1251 20.2312 27.4126 24.8874 22.8313 27.5374L19.9751 22.5874C21.7188 21.5749 23.0938 19.9812 23.8251 18.0749H17.1188C16.5938 18.0749 16.1688 17.6499 16.1688 17.1249V13.3187C16.1688 12.7937 16.5938 12.3687 17.1188 12.3687ZM7.84998 19.3438C9.38748 21.9937 12.25 23.7875 15.5312 23.7875H15.5312V23.7874C17.15 23.7874 18.6625 23.3437 19.9688 22.5874L19.9703 22.5902L19.975 22.5875L22.8312 27.5375V27.5438C20.675 28.7875 18.1812 29.5 15.5312 29.5C10.1375 29.5 5.41873 26.5625 2.89998 22.1938L7.84998 19.3438Z" fill="#7A838C"/>
</svg>
