<svg width="32" height="32" viewBox="0 0 32 32" fill="none" xmlns="http://www.w3.org/2000/svg">
<path opacity="0.35" d="M15.9999 2.66683C8.63613 2.66683 2.66659 8.63637 2.66659 16.0002C2.66659 23.364 8.63612 29.3335 15.9999 29.3335C23.3637 29.3335 29.3333 23.364 29.3333 16.0002C29.3333 8.63637 23.3637 2.66683 15.9999 2.66683Z" fill="white"/>
<path d="M22.6667 14.3332C22.6667 14.8452 22.4721 15.3572 22.0814 15.7478L17.4147 20.4145C16.6347 21.1958 15.3667 21.1958 14.5867 20.4145L9.92008 15.7478C9.13875 14.9665 9.13875 13.7012 9.92008 12.9198C10.7001 12.1385 11.9681 12.1385 12.7481 12.9198L16.0001 16.1718L19.2521 12.9198C20.0321 12.1385 21.3001 12.1385 22.0801 12.9198C22.4721 13.3092 22.6667 13.8212 22.6667 14.3332Z" fill="white"/>
</svg>
