<svg width="16" height="16" viewBox="0 0 16 16" fill="none" xmlns="http://www.w3.org/2000/svg">
<path fill-rule="evenodd" clip-rule="evenodd" d="M15.0614 0.938649C14.4763 0.353784 13.528 0.353784 12.9429 0.938649L8.00938 5.87218L3.07585 0.938649C2.488 0.370878 1.55357 0.378998 0.975666 0.956899C0.397765 1.5348 0.389645 2.46923 0.957416 3.05709L5.89095 7.99062L0.957416 12.9241C0.567952 13.3003 0.411757 13.8573 0.548865 14.3811C0.685972 14.905 1.09504 15.314 1.61885 15.4511C2.14267 15.5882 2.6997 15.432 3.07585 15.0426L8.00938 10.1091L12.9429 15.0426C13.5308 15.6104 14.4652 15.6022 15.0431 15.0243C15.621 14.4464 15.6291 13.512 15.0614 12.9241L10.1278 7.99062L15.0614 3.05709C15.6462 2.47204 15.6462 1.52369 15.0614 0.938649Z" fill="white"/>
</svg>
