<svg width="343" height="396" viewBox="0 0 343 396" fill="none" xmlns="http://www.w3.org/2000/svg">
<rect width="343" height="396" rx="24" fill="#7A56FE"/>
<path d="M247.07 231.919C246.324 229.91 245.831 227.817 245.601 225.686C245.443 224.345 245.364 223.011 245.341 221.67C244.03 221.607 242.719 221.504 241.392 221.346C239.281 221.122 237.191 220.723 235.146 220.155C234.992 220.112 234.856 220.019 234.759 219.892C234.663 219.764 234.611 219.609 234.611 219.449C234.611 219.289 234.663 219.133 234.759 219.006C234.856 218.879 234.992 218.786 235.146 218.743C237.192 218.175 239.281 217.777 241.392 217.551C242.727 217.393 244.061 217.291 245.404 217.22C245.467 215.886 245.57 214.553 245.728 213.211C245.952 211.104 246.354 209.019 246.928 206.978C246.967 206.862 247.032 206.757 247.118 206.671C247.205 206.585 247.31 206.52 247.425 206.481C247.612 206.427 247.812 206.45 247.982 206.543C248.152 206.636 248.278 206.792 248.334 206.978C248.908 209.019 249.31 211.104 249.534 213.211C249.684 214.521 249.787 215.831 249.858 217.157C251.199 217.164 252.539 217.253 253.869 217.425C256.003 217.646 258.1 218.139 260.108 218.893C260.187 218.923 260.259 218.969 260.319 219.029C260.379 219.089 260.425 219.161 260.455 219.24C260.513 219.39 260.508 219.558 260.443 219.705C260.378 219.853 260.258 219.969 260.108 220.029C258.1 220.782 256.003 221.275 253.869 221.496C252.559 221.651 251.241 221.737 249.921 221.757C249.912 223.076 249.825 224.393 249.66 225.702C249.432 227.833 248.936 229.928 248.184 231.935C248.153 232.013 248.107 232.083 248.048 232.143C247.99 232.202 247.921 232.25 247.844 232.282C247.693 232.332 247.529 232.322 247.385 232.254C247.241 232.187 247.129 232.067 247.07 231.919Z" fill="#FFB400"/>
<path d="M118.616 86.1611C117.862 84.1516 117.369 82.0543 117.147 79.9199C116.99 78.5891 116.901 77.2513 116.878 75.9116C115.567 75.8406 114.257 75.738 112.93 75.5881C110.82 75.3641 108.733 74.9629 106.691 74.3887C106.573 74.3554 106.465 74.2922 106.377 74.2051C106.29 74.1181 106.227 74.0101 106.194 73.8917C106.138 73.7073 106.159 73.5086 106.25 73.339C106.341 73.1695 106.496 73.0431 106.68 72.9874H106.691C108.733 72.4136 110.82 72.0124 112.93 71.7881C114.264 71.6382 115.607 71.5277 116.942 71.4646C117.005 70.1311 117.115 68.7898 117.265 67.4563C117.49 65.3486 117.891 63.2634 118.466 61.2229C118.504 61.1073 118.57 61.0022 118.656 60.916C118.742 60.8297 118.847 60.7646 118.963 60.7258C119.148 60.6704 119.347 60.6904 119.516 60.7816C119.686 60.8727 119.813 61.0275 119.868 61.2119V61.2229C120.443 63.2633 120.844 65.3485 121.068 67.4563C121.219 68.7661 121.321 70.0759 121.392 71.4015C122.733 71.4241 124.07 71.5135 125.404 71.6697C127.54 71.8922 129.639 72.3854 131.65 73.1373C131.727 73.1674 131.797 73.2131 131.856 73.2715C131.914 73.3299 131.96 73.3997 131.99 73.4766C132.048 73.6264 132.044 73.7927 131.981 73.9401C131.917 74.0875 131.799 74.2043 131.65 74.2657C129.637 75.0114 127.539 75.5044 125.404 75.7333C124.093 75.8911 122.782 75.9621 121.455 75.9936C121.447 77.3127 121.36 78.6301 121.195 79.9388C120.965 82.0719 120.472 84.1684 119.726 86.1801C119.678 86.2917 119.598 86.3867 119.496 86.4535C119.394 86.5202 119.275 86.5558 119.153 86.5558C119.032 86.5558 118.913 86.5202 118.811 86.4535C118.709 86.3867 118.629 86.2917 118.581 86.1801L118.616 86.1611Z" fill="#FFB400"/>
<path d="M223.022 156.788C222.269 154.778 221.775 152.681 221.553 150.546C221.397 149.216 221.307 147.878 221.285 146.538C219.974 146.467 218.663 146.364 217.336 146.215C215.227 145.991 213.14 145.589 211.098 145.015C210.979 144.982 210.871 144.919 210.784 144.832C210.697 144.745 210.633 144.637 210.6 144.518C210.545 144.334 210.565 144.135 210.656 143.965C210.747 143.796 210.902 143.67 211.087 143.614H211.098C213.139 143.039 215.226 142.64 217.336 142.422C218.671 142.265 220.013 142.154 221.348 142.091C221.419 140.758 221.522 139.416 221.68 138.083C221.905 135.976 222.304 133.891 222.872 131.849C222.911 131.734 222.976 131.629 223.062 131.542C223.149 131.456 223.254 131.391 223.37 131.352C223.554 131.297 223.753 131.317 223.923 131.408C224.092 131.499 224.219 131.654 224.275 131.838V131.849C224.849 133.89 225.251 135.975 225.475 138.083C225.625 139.393 225.735 140.702 225.799 142.028C227.143 142.035 228.485 142.124 229.818 142.296C231.952 142.519 234.048 143.012 236.057 143.764C236.134 143.794 236.204 143.84 236.262 143.898C236.321 143.956 236.366 144.026 236.396 144.103C236.454 144.253 236.451 144.419 236.387 144.567C236.324 144.714 236.205 144.831 236.057 144.892C234.046 145.637 231.95 146.13 229.818 146.36C228.499 146.518 227.189 146.589 225.87 146.62C225.85 147.939 225.763 149.256 225.609 150.565C225.383 152.699 224.89 154.796 224.14 156.807C224.092 156.918 224.012 157.013 223.91 157.08C223.809 157.147 223.689 157.182 223.568 157.182C223.446 157.182 223.327 157.147 223.225 157.08C223.124 157.013 223.044 156.918 222.995 156.807L223.022 156.788Z" fill="#FFB400"/>
<path d="M220.163 206.205C219.459 205.358 218.957 204.363 218.695 203.293C218.622 203.013 218.564 202.728 218.521 202.441C218.292 202.394 218.055 202.346 217.826 202.283C216.798 202.041 215.815 201.639 214.912 201.092C214.806 201.023 214.717 200.932 214.651 200.824C214.532 200.652 214.486 200.439 214.524 200.234C214.561 200.028 214.679 199.845 214.851 199.726C214.871 199.712 214.891 199.699 214.912 199.687C215.813 199.135 216.797 198.73 217.826 198.488C218.102 198.417 218.379 198.362 218.655 198.307C218.71 198.03 218.766 197.754 218.837 197.518C219.079 196.489 219.484 195.506 220.037 194.606C220.103 194.5 220.192 194.411 220.298 194.346C220.484 194.229 220.709 194.19 220.923 194.238C221.137 194.287 221.324 194.419 221.441 194.604C221.988 195.507 222.391 196.489 222.634 197.516C222.697 197.745 222.744 197.982 222.791 198.21C223.079 198.253 223.363 198.311 223.644 198.384C224.713 198.649 225.709 199.151 226.558 199.852L226.645 199.938C226.765 200.094 226.822 200.288 226.806 200.484C226.79 200.679 226.702 200.862 226.558 200.996C225.713 201.703 224.716 202.205 223.644 202.463C223.407 202.526 223.171 202.582 222.934 202.621C222.911 202.863 222.858 203.102 222.776 203.331C222.517 204.402 222.014 205.398 221.307 206.243C221.28 206.274 221.251 206.303 221.22 206.33C221.06 206.444 220.863 206.495 220.668 206.472C220.472 206.449 220.292 206.353 220.163 206.205Z" fill="#FFB400"/>
<path d="M132.941 177.799C132.388 176.899 131.983 175.916 131.741 174.888C131.685 174.659 131.63 174.422 131.59 174.194C131.3 174.155 131.012 174.097 130.73 174.02C129.66 173.762 128.665 173.26 127.824 172.552L127.737 172.466C127.617 172.31 127.56 172.116 127.576 171.92C127.592 171.725 127.68 171.542 127.824 171.408C128.67 170.708 129.663 170.206 130.73 169.941C130.967 169.878 131.211 169.83 131.448 169.791C131.661 168.459 132.222 167.207 133.075 166.161L133.154 166.082C133.309 165.962 133.503 165.903 133.698 165.918C133.894 165.932 134.077 166.019 134.212 166.161C134.919 167.007 135.424 168.003 135.689 169.073C135.759 169.354 135.815 169.638 135.855 169.925C136.092 169.972 136.321 170.027 136.558 170.083C137.584 170.326 138.565 170.731 139.464 171.282C139.556 171.329 139.638 171.394 139.705 171.473C139.773 171.552 139.823 171.644 139.855 171.742C139.887 171.841 139.899 171.945 139.891 172.048C139.882 172.151 139.854 172.252 139.807 172.344C139.731 172.492 139.611 172.612 139.464 172.687C138.563 173.232 137.583 173.634 136.558 173.878C136.273 173.949 135.997 174.012 135.721 174.059C135.673 174.336 135.61 174.612 135.547 174.848C135.304 175.877 134.899 176.86 134.347 177.76C134.282 177.866 134.192 177.956 134.086 178.02C133.904 178.142 133.682 178.186 133.468 178.145C133.254 178.104 133.064 177.98 132.941 177.799Z" fill="#FFB400"/>
<path d="M184.493 96.3159C184.42 96.0351 184.362 95.7507 184.319 95.4637C184.09 95.4164 183.853 95.3612 183.624 95.3059C182.595 95.0641 181.611 94.6592 180.71 94.1066C180.604 94.0416 180.514 93.9523 180.449 93.8462C180.332 93.6605 180.293 93.4358 180.342 93.2215C180.39 93.0073 180.522 92.821 180.707 92.7037C181.611 92.1572 182.594 91.7552 183.621 91.5123C183.898 91.4412 184.174 91.386 184.451 91.3308C184.506 91.0546 184.561 90.7785 184.632 90.5417C184.875 89.5149 185.277 88.5325 185.825 87.6302C185.894 87.5245 185.985 87.4355 186.093 87.3698C186.279 87.2527 186.504 87.2141 186.719 87.2627C186.933 87.3112 187.119 87.4428 187.237 87.6286C187.784 88.5309 188.186 89.5134 188.429 90.5402C188.492 90.769 188.54 91.0057 188.587 91.2345C188.875 91.2734 189.16 91.3314 189.44 91.4081C190.511 91.6669 191.509 92.1691 192.354 92.8757L192.433 92.9625C192.563 93.1102 192.629 93.3034 192.617 93.4997C192.604 93.696 192.514 93.8794 192.367 94.0096L192.354 94.0198C191.507 94.7235 190.51 95.2253 189.44 95.4874C189.203 95.5505 188.966 95.5979 188.729 95.6452C188.707 95.8877 188.654 96.1263 188.571 96.3553C188.313 97.4259 187.81 98.4223 187.102 99.2669L187.016 99.3458C186.861 99.4663 186.667 99.525 186.471 99.5104C186.276 99.4958 186.093 99.409 185.957 99.2669C185.246 98.4103 184.745 97.3999 184.493 96.3159Z" fill="#FFB400"/>
<path d="M294.83 172.529C294.757 172.245 294.699 171.958 294.656 171.669C294.419 171.645 294.186 171.595 293.961 171.519C292.932 171.277 291.948 170.872 291.047 170.319C290.941 170.254 290.851 170.165 290.786 170.059C290.669 169.873 290.63 169.648 290.679 169.434C290.728 169.22 290.859 169.034 291.045 168.917C291.947 168.364 292.93 167.959 293.959 167.717C294.236 167.654 294.512 167.591 294.789 167.544C294.844 167.267 294.899 166.991 294.97 166.707C295.215 165.683 295.617 164.704 296.163 163.804C296.233 163.697 296.325 163.606 296.431 163.535C296.619 163.421 296.844 163.384 297.059 163.435C297.273 163.485 297.459 163.617 297.576 163.804C298.122 164.704 298.524 165.683 298.769 166.707C298.832 166.944 298.879 167.173 298.927 167.409C299.214 167.45 299.498 167.505 299.779 167.575C300.845 167.845 301.836 168.352 302.678 169.059L302.757 169.137C302.879 169.285 302.939 169.475 302.924 169.666C302.909 169.858 302.821 170.036 302.678 170.163C301.831 170.869 300.834 171.374 299.764 171.639C299.527 171.702 299.29 171.749 299.053 171.789C299.013 172.025 298.958 172.262 298.895 172.507C298.637 173.575 298.134 174.569 297.426 175.41L297.339 175.497C297.184 175.617 296.989 175.674 296.793 175.658C296.598 175.642 296.415 175.554 296.281 175.41C295.582 174.574 295.086 173.588 294.83 172.529Z" fill="#FFB400"/>
<path d="M179.059 161.482C179.206 161.717 179.336 161.962 179.446 162.216H179.494C180.238 162.529 180.882 163.039 181.357 163.692C181.478 163.856 181.544 164.055 181.544 164.26C181.544 164.464 181.478 164.663 181.357 164.828C180.095 165.648 179.019 166.723 178.199 167.984C178.033 168.108 177.833 168.175 177.626 168.175C177.42 168.175 177.219 168.108 177.054 167.984C176.405 167.507 175.897 166.864 175.585 166.122V166.075C175.331 165.964 175.085 165.835 174.85 165.688C174.51 165.487 174.197 165.243 173.918 164.962C173.734 164.775 173.631 164.522 173.631 164.26C173.631 163.997 173.734 163.745 173.918 163.558C174.197 163.277 174.51 163.033 174.85 162.832C175.134 162.648 175.435 162.495 175.751 162.374C175.875 162.058 176.028 161.754 176.209 161.467C176.416 161.129 176.663 160.816 176.943 160.536C177.132 160.353 177.384 160.251 177.646 160.251C177.908 160.251 178.16 160.353 178.349 160.536C178.625 160.82 178.864 161.138 179.059 161.482Z" fill="#FFB400"/>
<path d="M104.583 152.006C104.435 151.773 104.308 151.527 104.204 151.272C104.185 151.274 104.167 151.274 104.148 151.272C103.404 150.967 102.761 150.458 102.293 149.805C102.168 149.64 102.1 149.439 102.1 149.232C102.1 149.026 102.168 148.825 102.293 148.66C102.735 148.043 103.335 147.555 104.03 147.248C104.339 146.554 104.827 145.955 105.444 145.512C105.608 145.387 105.809 145.32 106.016 145.32C106.223 145.32 106.424 145.387 106.589 145.512C107.241 145.986 107.749 146.63 108.057 147.374V147.422C108.313 147.526 108.559 147.653 108.792 147.8C109.13 148.005 109.443 148.248 109.724 148.526C109.909 148.715 110.012 148.968 110.012 149.232C110.012 149.497 109.909 149.75 109.724 149.939C109.443 150.217 109.13 150.46 108.792 150.665C108.509 150.848 108.207 151.002 107.892 151.122C107.768 151.436 107.614 151.737 107.434 152.022C107.229 152.361 106.982 152.674 106.699 152.953C106.513 153.139 106.26 153.243 105.996 153.243C105.733 153.243 105.48 153.139 105.293 152.953C105.015 152.67 104.776 152.352 104.583 152.006Z" fill="#FFB400"/>
<path d="M62.6575 122.764V122.717C62.4001 122.614 62.154 122.484 61.9231 122.33C61.5817 122.131 61.2683 121.887 60.9912 121.605C60.8051 121.419 60.7006 121.166 60.7006 120.903C60.7006 120.64 60.8051 120.387 60.9912 120.201C61.2685 119.919 61.5818 119.675 61.9231 119.475C62.2065 119.292 62.5082 119.138 62.8234 119.017C62.9441 118.7 63.0976 118.396 63.2814 118.11C63.4879 117.773 63.7316 117.461 64.0079 117.179C64.1964 116.997 64.4484 116.895 64.7107 116.895C64.973 116.895 65.2251 116.997 65.4136 117.179C65.6946 117.459 65.9412 117.771 66.148 118.11C66.2958 118.343 66.4226 118.588 66.527 118.844C66.5426 118.848 66.5589 118.848 66.5744 118.844C67.3212 119.152 67.9668 119.663 68.4381 120.319C68.5623 120.483 68.6294 120.682 68.6294 120.887C68.6294 121.092 68.5623 121.292 68.4381 121.455C67.9946 122.074 67.3952 122.564 66.7008 122.876C66.3896 123.568 65.9022 124.166 65.2872 124.612C65.122 124.735 64.9211 124.802 64.7147 124.802C64.5082 124.802 64.3074 124.735 64.1422 124.612C63.4836 124.147 62.9691 123.507 62.6575 122.764Z" fill="#FFB400"/>
<path d="M155.842 111.615V111.568C155.588 111.458 155.342 111.329 155.108 111.181C154.769 110.978 154.456 110.734 154.176 110.456C153.994 110.267 153.892 110.015 153.892 109.753C153.892 109.491 153.994 109.239 154.176 109.051C154.458 108.773 154.771 108.526 155.108 108.317C155.395 108.137 155.7 107.983 156.016 107.86C156.137 107.545 156.291 107.243 156.474 106.96C156.676 106.621 156.92 106.308 157.2 106.029C157.388 105.845 157.64 105.742 157.903 105.742C158.166 105.742 158.419 105.845 158.606 106.029C159.073 106.514 159.45 107.078 159.72 107.694H159.767C160.511 108.004 161.155 108.511 161.631 109.162C161.755 109.327 161.821 109.527 161.821 109.734C161.821 109.94 161.755 110.141 161.631 110.306C161.184 110.922 160.582 111.41 159.885 111.718C159.579 112.413 159.09 113.012 158.472 113.454C158.309 113.578 158.109 113.646 157.903 113.646C157.698 113.646 157.498 113.578 157.335 113.454C156.677 112.99 156.16 112.354 155.842 111.615Z" fill="#FFB400"/>
<path d="M251.191 87.8346V87.7872C250.934 87.6773 250.686 87.5481 250.448 87.4006C250.11 87.197 249.797 86.9532 249.517 86.6747C249.334 86.4863 249.232 86.2345 249.232 85.9724C249.232 85.7104 249.334 85.4586 249.517 85.2702C249.797 84.9917 250.11 84.7479 250.448 84.5443C250.735 84.3622 251.039 84.2089 251.357 84.0867C251.628 83.4026 252.03 82.778 252.541 82.2482C252.73 82.066 252.982 81.9641 253.244 81.9641C253.506 81.9641 253.758 82.066 253.947 82.2482C254.227 82.529 254.473 82.8414 254.681 83.1793C254.829 83.4122 254.956 83.6578 255.06 83.9131H255.108C255.851 84.223 256.496 84.7306 256.971 85.3807C257.095 85.5457 257.162 85.7465 257.162 85.9527C257.162 86.159 257.095 86.3597 256.971 86.5248C255.711 87.3469 254.635 88.4216 253.812 89.6809C253.647 89.8046 253.446 89.8715 253.24 89.8715C253.034 89.8715 252.833 89.8046 252.667 89.6809C252.014 89.2138 251.502 88.5747 251.191 87.8346Z" fill="#FFB400"/>
<path d="M273.769 185.772C273.623 185.452 273.46 185.141 273.28 184.84C272.518 183.517 271.502 182.357 270.29 181.427C269.078 180.496 267.694 179.814 266.217 179.419C264.74 179.024 263.2 178.923 261.684 179.124C260.168 179.324 258.707 179.821 257.384 180.586C223.458 195.743 174.483 195.256 154.413 194.059C144.867 193.483 141.138 191.134 140.294 188.519L140.516 185.328C141.409 183.284 142.998 181.62 145 180.631C147.931 179.348 112.276 178.193 104.727 175.711C95.1804 189.849 93.0047 206.159 93.0938 221.182V221.359C93.0583 231.654 94.6784 241.889 97.8924 251.672C96.6071 252.869 95.3217 254.11 93.985 255.307C87.369 260.935 74.8482 268.558 61.5271 275.472C71.6066 270.951 89.6329 279.194 104.2 295.592C120.273 313.718 125.868 334.946 116.766 342.968C116.659 343.084 116.54 343.188 116.411 343.278C125.735 337.206 148.557 319.214 156.283 310.394C144.916 304.407 146.959 299.669 149.046 300.999C152.863 303.401 157.277 304.69 161.789 304.721L156.417 310.305C157.127 309.596 157.882 308.887 158.548 308.178L160.412 306.273C160.901 305.785 161.389 305.253 161.834 304.766C185.766 303.88 218.268 292.135 227.859 265.411C239.226 259.206 249.709 247.551 246.064 225.968L259.917 205.27C263.061 203.986 266.114 202.491 269.056 200.795C271.571 199.323 273.447 196.969 274.319 194.192C275.19 191.414 274.994 188.413 273.769 185.772ZM92.8805 256.238C92.8805 256.238 97.0981 252.47 97.9421 251.628C99.256 255.331 100.814 258.944 102.604 262.442C104.02 265.015 98.8221 265.588 92.8728 256.238H92.8805Z" fill="#FFB400"/>
<path d="M104.191 295.592C89.6757 279.149 71.604 270.951 61.5245 275.472C61.1697 275.649 60.8141 275.826 60.4594 276.047C59.8294 276.42 59.2348 276.85 58.6831 277.33C49.5804 285.354 55.1776 306.581 71.2493 324.713C85.6346 341.022 103.618 349.265 113.697 344.967C114.683 344.543 115.608 343.992 116.45 343.326C116.583 343.241 116.672 343.105 116.805 343.017C125.863 334.946 120.268 313.718 104.191 295.592ZM83.2833 314.073C78.9766 309.198 77.4668 303.525 79.9089 301.353C82.3511 299.182 87.8565 301.398 92.1195 306.273C96.3825 311.148 97.9361 316.82 95.4939 318.992C93.0947 321.121 87.6329 318.903 83.2833 314.073Z" fill="#F04E23"/>
<path d="M95.5414 318.993C97.986 316.838 96.4672 311.135 92.1491 306.256C87.8311 301.376 82.3489 299.168 79.9043 301.323C77.4597 303.478 78.9785 309.181 83.2966 314.06C87.6147 318.94 93.0969 321.148 95.5414 318.993Z" fill="white"/>
<path d="M97.9789 251.673C97.1348 252.471 92.9172 256.283 92.9172 256.283C98.8666 265.634 104.106 265.057 102.686 262.487C100.886 258.987 99.314 255.375 97.9789 251.673Z" fill="#F04E23"/>
<path d="M149.041 300.955C146.954 299.625 144.911 304.367 156.234 310.35L156.367 310.217L161.74 304.677C157.25 304.588 152.865 303.303 149.041 300.955Z" fill="#F04E23"/>
<path d="M262.487 152.532C263.079 153.562 263.397 154.725 263.412 155.912C263.427 157.098 263.138 158.269 262.573 159.313C259.376 165.252 250.983 178.769 230.204 205.715C206.849 235.895 190.065 252.426 183.271 258.719C182.253 259.655 180.98 260.268 179.613 260.481C178.245 260.694 176.845 260.498 175.589 259.916C170.039 257.345 159.427 251.54 145.041 239.485C131.502 228.095 125.104 220.071 122.174 215.73C121.539 214.763 121.154 213.653 121.054 212.501C120.953 211.349 121.14 210.19 121.597 209.127C120.217 212.103 119.643 215.387 119.931 218.653C120.219 221.919 121.36 225.052 123.24 227.741C126.126 232.128 132.52 240.105 146.107 251.495C160.448 263.554 171.105 269.356 176.655 271.926C177.913 272.496 179.311 272.687 180.675 272.474C182.04 272.261 183.313 271.655 184.337 270.728C191.13 264.48 210.489 246.531 233.845 216.395C254.667 189.493 261.374 178.148 264.571 172.209C266.528 168.62 267.149 159.668 262.487 152.532ZM139.228 240.105C139.188 240.147 139.139 240.181 139.086 240.204C139.033 240.227 138.975 240.239 138.917 240.239C138.859 240.239 138.801 240.227 138.748 240.204C138.695 240.181 138.646 240.147 138.606 240.105C137.052 238.776 135.454 237.357 134.033 235.939C132.523 234.477 131.147 232.97 129.77 231.464C128.394 229.912 127.062 228.317 125.818 226.632C124.563 224.974 123.408 223.242 122.357 221.448C122.326 221.396 122.305 221.338 122.297 221.278C122.288 221.218 122.293 221.157 122.309 221.098C122.326 221.04 122.355 220.986 122.394 220.939C122.432 220.892 122.48 220.854 122.535 220.827C122.584 220.794 122.639 220.772 122.698 220.761C122.756 220.75 122.816 220.751 122.873 220.763C122.931 220.776 122.986 220.799 123.035 220.833C123.083 220.867 123.124 220.91 123.156 220.96C124.399 222.555 125.641 224.151 126.975 225.75C128.307 227.301 129.639 228.896 131.015 230.403C132.391 231.91 133.768 233.461 135.145 234.923L139.318 239.4C139.391 239.509 139.421 239.64 139.405 239.769C139.388 239.899 139.325 240.018 139.228 240.105ZM147.531 246.178L147.309 247.375C147.291 247.505 147.24 247.628 147.159 247.732C147.079 247.836 146.972 247.917 146.851 247.966C146.729 248.015 146.596 248.032 146.466 248.014C146.336 247.996 146.213 247.944 146.109 247.863C144.396 246.515 142.778 245.048 141.27 243.475C141.143 243.329 141.07 243.144 141.061 242.951C141.053 242.758 141.111 242.568 141.225 242.412L141.758 241.791C141.825 241.711 141.907 241.646 141.999 241.598C142.092 241.551 142.193 241.522 142.297 241.514C142.401 241.506 142.505 241.519 142.604 241.552C142.703 241.585 142.794 241.637 142.872 241.706C143.582 242.371 144.426 243.125 145.314 243.878C145.936 244.454 146.599 244.941 147.224 245.429C147.346 245.507 147.441 245.62 147.496 245.754C147.551 245.888 147.563 246.036 147.531 246.177V246.178ZM204.987 245.114C203.077 247.197 201.168 249.28 199.215 251.319C197.261 253.358 195.263 255.396 193.309 257.391C191.311 259.386 189.224 261.336 187.181 263.241L185.672 264.704L184.918 265.413C184.626 265.673 184.314 265.911 183.985 266.122C182.682 267.031 181.134 267.525 179.545 267.54C178.748 267.531 177.956 267.412 177.191 267.186C176.825 267.065 176.469 266.917 176.126 266.743L175.149 266.255C173.864 265.634 172.618 264.925 171.379 264.261C168.937 262.843 166.451 261.424 164.095 259.829C161.742 258.277 159.389 256.682 157.08 254.998C154.771 253.314 152.551 251.63 150.376 249.813C150.329 249.778 150.289 249.734 150.259 249.684C150.23 249.634 150.21 249.578 150.202 249.521C150.194 249.463 150.198 249.404 150.213 249.348C150.228 249.292 150.254 249.239 150.29 249.193C150.366 249.106 150.47 249.049 150.585 249.034C150.699 249.018 150.815 249.044 150.911 249.107C153.176 250.747 155.441 252.387 157.794 254.027C160.147 255.622 162.456 257.173 164.854 258.636C167.207 260.143 169.652 261.561 172.091 262.934C173.29 263.599 174.533 264.264 175.775 264.84L176.708 265.283C177.019 265.416 177.285 265.505 177.596 265.638C178.197 265.837 178.828 265.928 179.461 265.904C180.721 265.886 181.951 265.517 183.014 264.84C183.272 264.659 183.51 264.451 183.724 264.22L184.479 263.511L186.032 262.048C188.075 260.143 190.117 258.193 192.16 256.286C194.203 254.38 196.245 252.387 198.198 250.393C200.197 248.443 202.195 246.404 204.149 244.406C204.187 244.354 204.237 244.312 204.295 244.283C204.353 244.254 204.417 244.239 204.481 244.239C204.546 244.239 204.61 244.254 204.668 244.283C204.725 244.312 204.776 244.354 204.814 244.406C205.165 244.626 205.165 244.892 204.987 245.113V245.114ZM263.553 169.108C262.487 171.236 261.333 173.319 260.089 175.313C258.846 177.352 257.558 179.348 256.227 181.3C253.562 185.245 250.765 189.056 247.791 192.735C247.756 192.781 247.712 192.821 247.661 192.851C247.611 192.88 247.555 192.9 247.497 192.908C247.44 192.916 247.381 192.912 247.324 192.897C247.268 192.882 247.215 192.856 247.168 192.82C247.121 192.786 247.081 192.742 247.051 192.692C247.021 192.642 247.001 192.586 246.993 192.528C246.985 192.47 246.989 192.411 247.004 192.354C247.02 192.298 247.046 192.245 247.083 192.199C249.659 188.211 252.367 184.311 254.987 180.411C257.651 176.511 260.226 172.566 262.801 168.622C262.877 168.523 262.984 168.452 263.104 168.42C263.225 168.388 263.352 168.397 263.467 168.445C263.546 168.534 263.596 168.645 263.611 168.763C263.627 168.881 263.606 169.001 263.553 169.108V169.108Z" fill="#04294F"/>
<path d="M122.134 215.73C125.02 220.118 131.413 228.095 145 239.485C159.342 251.54 169.998 257.345 175.548 259.916C176.806 260.487 178.204 260.678 179.569 260.465C180.934 260.252 182.207 259.645 183.23 258.719C190.024 252.47 206.807 235.895 230.163 205.715C250.985 178.813 259.334 165.297 262.531 159.313C263.087 158.266 263.37 157.097 263.355 155.912C263.34 154.727 263.027 153.565 262.446 152.533V152.489C262.224 152.179 262.002 151.868 261.78 151.514C258.495 147.569 251.568 140.652 237.537 131.039C223.591 121.421 215.465 117.832 211.291 116.503C210.21 116.178 209.068 116.114 207.957 116.313C206.846 116.513 205.798 116.972 204.898 117.652C199.703 121.685 186.475 132.897 161.384 159.976C136.877 186.389 126.085 201.679 122.044 208.106C121.885 208.342 121.751 208.595 121.645 208.859C121.605 208.928 121.576 209.003 121.559 209.081C121.1 210.151 120.912 211.317 121.012 212.477C121.112 213.637 121.498 214.754 122.134 215.73ZM142.87 228.051C142.739 228.159 142.574 228.218 142.404 228.218C142.234 228.218 142.069 228.159 141.938 228.051C140.384 226.455 139.318 225.259 138.741 224.639C138.683 224.573 138.64 224.496 138.613 224.413C138.586 224.33 138.576 224.242 138.584 224.155C138.592 224.068 138.618 223.984 138.659 223.907C138.701 223.83 138.758 223.763 138.827 223.708L140.336 222.511C140.402 222.454 140.479 222.411 140.563 222.384C140.646 222.357 140.734 222.348 140.821 222.356C140.908 222.364 140.992 222.389 141.069 222.43C141.146 222.472 141.214 222.528 141.269 222.596C141.802 223.217 142.778 224.28 144.244 225.787C144.351 225.919 144.41 226.083 144.41 226.253C144.41 226.422 144.351 226.587 144.244 226.718L142.87 228.051ZM148.598 230.843L147.355 232.305C147.298 232.371 147.228 232.425 147.15 232.463C147.071 232.502 146.986 232.523 146.898 232.528C146.811 232.532 146.724 232.518 146.642 232.488C146.561 232.457 146.486 232.41 146.423 232.35C145.801 231.73 145.179 231.198 144.602 230.666C144.539 230.606 144.488 230.534 144.454 230.454C144.419 230.374 144.402 230.288 144.402 230.201C144.402 230.114 144.419 230.027 144.454 229.947C144.488 229.867 144.539 229.795 144.602 229.735L145.979 228.361C146.11 228.253 146.275 228.194 146.445 228.194C146.615 228.194 146.78 228.253 146.911 228.361C147.444 228.848 147.976 229.425 148.598 229.912C148.716 230.039 148.781 230.205 148.78 230.378C148.78 230.551 148.714 230.717 148.597 230.843H148.598ZM159.832 240.061L158.633 241.568C158.517 241.695 158.361 241.778 158.19 241.802C158.02 241.827 157.847 241.791 157.7 241.701C154.459 239.307 151.616 237.003 149.217 234.92C149.087 234.805 149.006 234.644 148.99 234.472C148.974 234.299 149.025 234.127 149.131 233.989L150.375 232.527C150.49 232.397 150.651 232.316 150.824 232.301C150.997 232.285 151.17 232.335 151.307 232.441C153.66 234.48 156.501 236.785 159.655 239.133C159.737 239.174 159.809 239.233 159.864 239.306C159.92 239.379 159.958 239.463 159.975 239.553C159.992 239.643 159.987 239.736 159.962 239.824C159.937 239.912 159.892 239.993 159.83 240.061H159.832ZM164.894 243.563L163.83 245.113C163.726 245.255 163.572 245.351 163.399 245.384C163.226 245.417 163.047 245.384 162.898 245.291C162.188 244.759 161.433 244.272 160.722 243.784C160.649 243.729 160.588 243.66 160.542 243.581C160.495 243.502 160.465 243.415 160.453 243.324C160.441 243.234 160.446 243.141 160.47 243.053C160.493 242.965 160.534 242.882 160.59 242.809L161.789 241.302C161.897 241.177 162.045 241.095 162.208 241.071C162.371 241.046 162.538 241.081 162.677 241.169C163.299 241.613 164.009 242.1 164.675 242.588C164.755 242.636 164.824 242.701 164.878 242.776C164.932 242.852 164.97 242.938 164.991 243.029C165.011 243.12 165.012 243.214 164.996 243.306C164.979 243.397 164.943 243.485 164.892 243.563H164.894ZM241.574 140.877C242.04 140.344 242.699 140.017 243.406 139.967C244.113 139.917 244.812 140.149 245.348 140.611C245.605 140.853 245.803 141.151 245.926 141.481C246.049 141.812 246.095 142.166 246.059 142.517C246.012 143.223 245.731 143.894 245.259 144.422C244.768 144.944 244.107 145.274 243.395 145.353H243.173C242.567 145.357 241.98 145.136 241.529 144.732C241.272 144.49 241.074 144.192 240.951 143.862C240.828 143.531 240.783 143.177 240.819 142.826C240.82 142.105 241.089 141.411 241.574 140.877ZM226.921 130.728C227.022 130.639 227.144 130.576 227.276 130.545C227.408 130.514 227.545 130.516 227.676 130.551C228.732 130.834 229.747 131.251 230.696 131.792C231.644 132.286 232.563 132.833 233.448 133.432C234.329 134.032 235.175 134.683 235.98 135.382C236.787 136.099 237.53 136.885 238.2 137.73C238.267 137.821 238.316 137.923 238.344 138.032C238.371 138.141 238.377 138.255 238.36 138.366C238.344 138.477 238.305 138.584 238.248 138.68C238.19 138.777 238.113 138.861 238.023 138.928C237.918 139.012 237.795 139.068 237.663 139.091C237.531 139.115 237.395 139.104 237.268 139.061C236.256 138.699 235.276 138.254 234.337 137.731C233.405 137.199 232.516 136.668 231.629 136.092C230.785 135.472 229.942 134.851 229.144 134.186C228.309 133.502 227.537 132.745 226.835 131.926C226.762 131.842 226.706 131.744 226.67 131.638C226.634 131.532 226.62 131.42 226.628 131.309C226.636 131.198 226.666 131.089 226.716 130.989C226.767 130.89 226.836 130.801 226.921 130.728ZM132.346 204.075C136.475 197.516 141.803 189.317 165.692 163.568C190.908 136.357 199.792 129.664 204.232 126.205C204.316 126.124 204.426 126.077 204.543 126.071C204.605 126.065 204.668 126.08 204.72 126.116C207.917 127.135 215.377 130.282 229.227 139.81C243.169 149.427 252.183 157.227 254.762 160.329C254.834 160.415 254.877 160.521 254.885 160.633C254.893 160.744 254.865 160.855 254.807 160.95C251.832 166.403 247.034 173.185 226.255 200.087C202.9 230.267 191.045 242.145 184.917 247.773C184.826 247.876 184.699 247.939 184.562 247.95C184.485 247.962 184.406 247.946 184.34 247.906C179.456 245.645 167.912 238.909 153.921 227.164C140.511 215.908 134.605 208.33 132.252 204.784C132.234 204.543 132.265 204.302 132.346 204.075Z" fill="#F04E23"/>
<path d="M261.776 151.558C262.023 151.865 262.246 152.191 262.442 152.533C262.262 152.181 262.038 151.854 261.776 151.558Z" fill="#04294F"/>
<path d="M153.969 227.032C167.955 238.82 179.5 245.601 184.389 247.773C184.458 247.805 184.534 247.82 184.611 247.817C184.745 247.798 184.87 247.735 184.966 247.64C191.093 241.967 202.904 230.134 226.304 199.953C247.084 173.098 251.88 166.316 254.855 160.82C254.913 160.725 254.941 160.614 254.933 160.503C254.925 160.392 254.882 160.286 254.81 160.2C252.234 157.098 243.177 149.298 229.279 139.68C215.425 130.152 208.011 127.05 204.772 125.987C204.728 125.987 204.687 125.942 204.595 125.942C204.537 125.941 204.479 125.952 204.425 125.975C204.371 125.998 204.323 126.032 204.284 126.075C199.844 129.532 191.008 136.18 165.743 163.435C141.856 189.228 136.523 197.428 132.397 203.942C132.333 204.024 132.297 204.126 132.297 204.23C132.297 204.334 132.333 204.436 132.397 204.518C134.654 208.196 140.56 215.775 153.969 227.032Z" fill="white"/>
<path d="M226.788 131.925C227.502 132.733 228.273 133.489 229.097 134.185C229.896 134.85 230.74 135.514 231.582 136.091C232.442 136.705 233.347 137.253 234.29 137.73C235.215 138.281 236.198 138.727 237.221 139.06C237.347 139.105 237.484 139.117 237.616 139.093C237.748 139.07 237.872 139.013 237.976 138.927C238.151 138.787 238.267 138.585 238.3 138.363C238.333 138.141 238.281 137.915 238.153 137.73C237.507 136.863 236.762 136.075 235.933 135.381C235.139 134.669 234.294 134.017 233.403 133.431C232.521 132.827 231.601 132.279 230.649 131.791C229.686 131.28 228.675 130.864 227.63 130.55C227.499 130.513 227.361 130.51 227.229 130.541C227.097 130.572 226.975 130.636 226.875 130.728C226.723 130.886 226.631 131.092 226.616 131.311C226.6 131.529 226.661 131.747 226.789 131.925H226.788Z" fill="#04294F"/>
<path d="M243.306 143.714C243.632 143.676 243.933 143.518 244.15 143.27C244.366 143.042 244.492 142.743 244.504 142.428C244.514 142.2 244.434 141.978 244.282 141.807C244.208 141.731 244.118 141.671 244.018 141.633C243.918 141.595 243.812 141.579 243.705 141.586C243.349 141.611 243.016 141.77 242.773 142.03C242.556 142.258 242.43 142.557 242.418 142.871C242.407 142.989 242.422 143.107 242.464 143.217C242.505 143.328 242.571 143.427 242.656 143.508C242.742 143.589 242.845 143.65 242.957 143.686C243.07 143.721 243.189 143.731 243.306 143.714Z" fill="#FFB400"/>
<path d="M243.216 145.309H243.438C244.146 145.211 244.801 144.884 245.304 144.379C245.8 143.866 246.085 143.186 246.102 142.473C246.124 142.123 246.072 141.773 245.95 141.445C245.828 141.117 245.638 140.818 245.392 140.567C244.856 140.106 244.158 139.875 243.452 139.925C242.746 139.975 242.088 140.301 241.622 140.833C241.125 141.346 240.84 142.026 240.822 142.739C240.8 143.089 240.852 143.439 240.975 143.767C241.097 144.095 241.287 144.394 241.533 144.644C241.754 144.863 242.017 145.034 242.307 145.148C242.596 145.262 242.905 145.317 243.216 145.309ZM242.773 141.985C243.016 141.726 243.349 141.568 243.705 141.542C243.917 141.549 244.121 141.627 244.282 141.764C244.36 141.847 244.419 141.944 244.458 142.051C244.496 142.158 244.512 142.271 244.504 142.384C244.48 142.696 244.356 142.991 244.15 143.226C243.921 143.458 243.626 143.613 243.306 143.669C243.185 143.691 243.061 143.682 242.944 143.643C242.828 143.605 242.723 143.538 242.64 143.448C242.562 143.365 242.502 143.267 242.464 143.16C242.426 143.054 242.41 142.94 242.418 142.827C242.413 142.67 242.443 142.513 242.504 142.368C242.565 142.223 242.657 142.092 242.773 141.985Z" fill="#04294F"/>
<path d="M263.419 168.443C263.366 168.403 263.305 168.375 263.24 168.362C263.174 168.349 263.107 168.351 263.043 168.368C262.978 168.385 262.919 168.417 262.868 168.46C262.818 168.504 262.779 168.559 262.753 168.62C260.183 172.609 257.603 176.554 254.939 180.409C252.319 184.353 249.61 188.209 247.036 192.197C246.971 192.293 246.944 192.41 246.959 192.524C246.975 192.639 247.033 192.744 247.121 192.818C247.165 192.86 247.217 192.892 247.275 192.911C247.332 192.929 247.393 192.935 247.453 192.926C247.513 192.918 247.57 192.897 247.621 192.863C247.671 192.829 247.713 192.785 247.743 192.733C250.762 189.055 253.515 185.243 256.179 181.299C257.512 179.349 258.799 177.31 260.042 175.312C261.285 173.273 262.441 171.234 263.506 169.107C263.581 169.007 263.614 168.881 263.597 168.757C263.581 168.633 263.517 168.521 263.419 168.443Z" fill="#F04E23"/>
<path d="M204.275 244.403C202.322 246.398 200.323 248.437 198.326 250.39C196.328 252.385 194.285 254.335 192.287 256.285C190.245 258.19 188.202 260.184 186.16 262.046L184.606 263.508L183.851 264.217C183.629 264.439 183.362 264.616 183.14 264.837C182.087 265.534 180.852 265.904 179.589 265.901C178.957 265.9 178.329 265.81 177.723 265.635C177.42 265.536 177.124 265.418 176.835 265.281L175.903 264.837C174.66 264.217 173.418 263.554 172.219 262.932C169.776 261.558 167.334 260.14 164.981 258.633C162.628 257.126 160.274 255.575 157.921 254.024C155.568 252.474 153.347 250.833 151.039 249.105C150.992 249.07 150.939 249.044 150.883 249.03C150.826 249.015 150.767 249.012 150.71 249.02C150.652 249.029 150.596 249.048 150.546 249.078C150.496 249.107 150.452 249.147 150.417 249.193C150.382 249.24 150.357 249.293 150.342 249.349C150.328 249.405 150.325 249.464 150.333 249.522C150.341 249.579 150.361 249.635 150.39 249.685C150.42 249.735 150.459 249.779 150.506 249.814C152.726 251.587 154.946 253.315 157.211 254.999C159.519 256.639 161.829 258.235 164.226 259.83C166.579 261.381 169.025 262.844 171.51 264.262C172.753 264.926 173.995 265.635 175.28 266.256L176.257 266.744C176.601 266.918 176.957 267.066 177.323 267.187C178.086 267.419 178.879 267.538 179.676 267.541C181.268 267.54 182.82 267.045 184.116 266.123C184.427 265.901 184.738 265.635 185.049 265.414L185.804 264.705L187.313 263.242C189.356 261.337 191.398 259.342 193.441 257.392C195.439 255.398 197.437 253.36 199.346 251.32C201.255 249.28 203.209 247.243 205.119 245.116C205.163 245.071 205.197 245.017 205.22 244.958C205.242 244.899 205.251 244.836 205.247 244.773C205.242 244.71 205.225 244.649 205.195 244.593C205.165 244.537 205.124 244.489 205.074 244.45C204.959 244.368 204.823 244.32 204.681 244.312C204.54 244.304 204.399 244.335 204.275 244.403Z" fill="#F04E23"/>
<path d="M145.355 243.873C144.467 243.119 143.623 242.366 142.913 241.701C142.835 241.632 142.744 241.58 142.645 241.547C142.546 241.514 142.442 241.501 142.338 241.509C142.234 241.517 142.133 241.546 142.041 241.593C141.948 241.641 141.866 241.706 141.799 241.786L141.266 242.407C141.154 242.564 141.098 242.754 141.106 242.946C141.114 243.139 141.186 243.323 141.311 243.47C142.831 245.032 144.447 246.497 146.15 247.858C146.254 247.939 146.377 247.991 146.507 248.009C146.637 248.027 146.77 248.01 146.892 247.961C147.013 247.911 147.12 247.831 147.2 247.727C147.281 247.623 147.332 247.5 147.35 247.37L147.572 246.173C147.6 246.042 147.59 245.905 147.543 245.779C147.496 245.654 147.413 245.544 147.305 245.464C146.643 244.936 145.977 244.403 145.355 243.873Z" fill="#F04E23"/>
<path d="M139.272 239.396L135.055 234.92C133.633 233.414 132.256 231.907 130.924 230.4C129.548 228.893 128.217 227.298 126.884 225.746C125.599 224.196 124.309 222.555 123.066 220.957C122.996 220.863 122.895 220.797 122.78 220.772C122.666 220.748 122.546 220.766 122.444 220.823C122.391 220.852 122.344 220.891 122.306 220.937C122.268 220.984 122.24 221.038 122.223 221.096C122.207 221.154 122.202 221.215 122.209 221.275C122.217 221.335 122.236 221.392 122.266 221.444C123.318 223.239 124.474 224.971 125.73 226.63C126.973 228.269 128.301 229.864 129.682 231.46C131.058 233.011 132.479 234.518 133.944 235.936C135.454 237.399 136.964 238.773 138.517 240.102C138.557 240.144 138.605 240.178 138.659 240.201C138.712 240.224 138.77 240.236 138.828 240.236C138.886 240.236 138.944 240.224 138.998 240.201C139.051 240.178 139.099 240.144 139.139 240.102C139.203 240.072 139.258 240.027 139.301 239.971C139.344 239.915 139.373 239.85 139.386 239.781C139.399 239.712 139.395 239.641 139.375 239.574C139.356 239.506 139.32 239.444 139.272 239.393V239.396Z" fill="#F04E23"/>
<path d="M159.697 239.086C156.5 236.738 153.699 234.477 151.35 232.394C151.284 232.338 151.207 232.294 151.123 232.268C151.04 232.241 150.952 232.232 150.865 232.24C150.778 232.248 150.693 232.273 150.616 232.314C150.539 232.356 150.471 232.412 150.417 232.48L149.174 233.943C149.117 234.009 149.074 234.086 149.047 234.169C149.02 234.252 149.011 234.339 149.019 234.426C149.027 234.513 149.052 234.598 149.094 234.675C149.135 234.752 149.192 234.819 149.26 234.874C151.659 236.957 154.543 239.261 157.743 241.655C157.813 241.708 157.892 241.747 157.977 241.769C158.062 241.791 158.151 241.796 158.238 241.784C158.325 241.771 158.408 241.742 158.484 241.697C158.559 241.652 158.624 241.592 158.676 241.521L159.876 240.014C159.926 239.942 159.961 239.86 159.979 239.774C159.997 239.688 159.998 239.599 159.981 239.513C159.964 239.426 159.931 239.344 159.882 239.271C159.833 239.198 159.77 239.135 159.697 239.086Z" fill="#04294F"/>
<path d="M146.864 228.361C146.733 228.253 146.568 228.195 146.398 228.195C146.228 228.195 146.063 228.253 145.932 228.361L144.555 229.735C144.437 229.862 144.372 230.028 144.372 230.201C144.372 230.373 144.437 230.539 144.555 230.666C145.132 231.198 145.71 231.73 146.376 232.35C146.508 232.461 146.678 232.519 146.851 232.511C147.024 232.502 147.187 232.429 147.308 232.305L148.551 230.843C148.663 230.711 148.72 230.542 148.712 230.369C148.704 230.196 148.631 230.033 148.507 229.912C147.978 229.425 147.398 228.893 146.864 228.361Z" fill="#04294F"/>
<path d="M144.246 225.746C142.736 224.239 141.803 223.132 141.27 222.555C141.15 222.435 140.99 222.36 140.82 222.344C140.649 222.329 140.479 222.373 140.338 222.47L138.828 223.667C138.698 223.783 138.617 223.943 138.602 224.116C138.586 224.288 138.636 224.461 138.743 224.598C139.32 225.218 140.342 226.414 141.94 228.01C142 228.073 142.072 228.124 142.152 228.158C142.232 228.192 142.319 228.21 142.406 228.21C142.493 228.21 142.579 228.192 142.659 228.158C142.74 228.124 142.812 228.073 142.872 228.01L144.249 226.637C144.357 226.513 144.416 226.355 144.415 226.191C144.415 226.027 144.354 225.869 144.246 225.746Z" fill="#04294F"/>
<path d="M164.759 242.676C164.093 242.189 163.382 241.745 162.761 241.258C162.696 241.204 162.62 241.164 162.538 241.142C162.456 241.119 162.371 241.114 162.287 241.127C162.203 241.139 162.123 241.169 162.051 241.215C161.98 241.26 161.919 241.32 161.872 241.391L160.673 242.898C160.614 242.969 160.571 243.052 160.546 243.141C160.521 243.23 160.514 243.323 160.527 243.415C160.539 243.506 160.57 243.594 160.619 243.673C160.667 243.752 160.731 243.82 160.806 243.873C161.517 244.36 162.227 244.892 162.982 245.379C163.054 245.43 163.136 245.467 163.223 245.486C163.309 245.504 163.399 245.506 163.486 245.489C163.573 245.473 163.656 245.439 163.73 245.389C163.803 245.34 163.866 245.276 163.914 245.202L164.98 243.651C165.051 243.486 165.067 243.303 165.027 243.128C164.988 242.953 164.894 242.795 164.759 242.676Z" fill="#04294F"/>
<path d="M187.138 159.579C184.163 158.206 181.098 156.92 177.946 155.768C174.727 154.627 171.452 153.651 168.134 152.843C160.994 151.077 153.617 150.464 146.283 151.027C142.301 151.348 138.369 152.121 134.562 153.331C130.6 154.558 126.787 156.222 123.194 158.291C119.602 160.419 116.252 162.93 113.204 165.781C110.219 168.59 107.527 171.693 105.167 175.043L104.461 176.067C103.821 177.011 103.257 178.003 102.774 179.036C101.327 182.329 100.947 185.991 101.687 189.51C102.426 193.03 104.248 196.231 106.899 198.666C109.549 201.102 112.896 202.65 116.471 203.096C120.046 203.541 123.671 202.861 126.84 201.15C130.303 196.319 138.381 186.259 138.381 186.259C139.053 185.413 139.799 184.627 140.609 183.91C143.466 181.319 146.886 179.423 150.599 178.37C155.064 177.15 159.699 176.671 164.319 176.952C166.862 177.091 169.396 177.357 171.912 177.75C174.488 178.193 177.107 178.769 179.727 179.39L179.993 179.475C184.877 180.716 188.785 177.925 190.916 173.227C193.487 167.911 192.466 162.061 187.138 159.579ZM163.83 159.225C163.745 159.624 163.698 160.023 163.609 160.423C163.41 161.217 163.096 161.979 162.676 162.683C162.617 162.776 162.523 162.843 162.415 162.867C162.307 162.892 162.193 162.874 162.099 162.816C162.024 162.781 161.963 162.724 161.923 162.652C161.883 162.581 161.867 162.498 161.877 162.417V162.373C161.962 161.619 162.099 160.91 162.143 160.157C162.188 159.802 162.188 159.448 162.229 159.093C162.251 158.739 162.251 158.384 162.229 158.03C162.229 157.304 162.184 156.578 162.095 155.858C162.01 155.149 161.918 154.351 161.83 153.642V153.598C161.815 153.486 161.844 153.374 161.91 153.283C161.976 153.193 162.074 153.131 162.184 153.11C162.267 153.09 162.353 153.102 162.427 153.143C162.501 153.184 162.557 153.251 162.584 153.332C163.004 154.035 163.318 154.797 163.517 155.592C163.732 156.372 163.836 157.178 163.827 157.987C163.895 158.397 163.896 158.815 163.83 159.225ZM167.429 160.111C167.389 160.153 167.341 160.187 167.288 160.21C167.234 160.233 167.177 160.245 167.118 160.245C167.06 160.245 167.003 160.233 166.949 160.21C166.896 160.187 166.847 160.153 166.807 160.111C166.74 160.054 166.693 159.976 166.674 159.89V159.845C166.63 159.536 166.63 159.225 166.589 158.915L166.544 158.073V157.231C166.531 156.918 166.559 156.605 166.63 156.3V156.215C166.64 156.157 166.663 156.102 166.697 156.054C166.73 156.006 166.774 155.966 166.825 155.937C166.875 155.907 166.932 155.889 166.99 155.883C167.049 155.878 167.108 155.885 167.163 155.904C167.249 155.904 167.34 155.99 167.385 156.038C167.643 156.328 167.852 156.657 168.006 157.013C168.144 157.351 168.219 157.711 168.228 158.077C168.23 158.832 167.942 159.56 167.423 160.111H167.429ZM186.566 164.901C186.41 165.544 186.126 166.149 185.731 166.68C185.335 167.212 184.837 167.658 184.265 167.993C183.694 168.329 183.06 168.546 182.403 168.631C181.745 168.717 181.077 168.67 180.439 168.493C177.42 167.784 177.42 164.815 178.039 162.243C178.659 159.672 179.637 158.609 182.702 159.318C185.716 160.023 187.138 162.327 186.56 164.897L186.566 164.901Z" fill="#FFB400"/>
<path d="M182.653 159.269C179.589 158.56 178.613 159.668 177.99 162.194C177.368 164.721 177.369 167.69 180.39 168.443C181.029 168.625 181.698 168.676 182.357 168.592C183.016 168.508 183.651 168.292 184.224 167.956C184.797 167.62 185.295 167.172 185.689 166.638C186.084 166.104 186.365 165.496 186.517 164.851C187.138 162.327 185.716 160.023 182.653 159.269Z" fill="#F04E23"/>
<path d="M162.672 153.375C162.63 153.307 162.571 153.251 162.501 153.212C162.431 153.173 162.353 153.153 162.273 153.154C162.217 153.161 162.163 153.179 162.114 153.208C162.065 153.237 162.023 153.275 161.99 153.321C161.957 153.367 161.933 153.419 161.921 153.474C161.908 153.529 161.907 153.586 161.917 153.641V153.686C162.003 154.395 162.139 155.148 162.184 155.902C162.272 156.622 162.317 157.347 162.317 158.073V159.133C162.273 159.488 162.273 159.842 162.232 160.197C162.187 160.906 162.01 161.659 161.965 162.413V162.457C161.955 162.539 161.971 162.621 162.011 162.693C162.051 162.764 162.113 162.821 162.187 162.856C162.282 162.913 162.395 162.932 162.503 162.907C162.611 162.882 162.705 162.816 162.765 162.722C163.192 162.022 163.506 161.26 163.697 160.463C163.813 160.073 163.888 159.671 163.919 159.265C163.978 158.869 163.993 158.468 163.963 158.068C163.947 157.261 163.843 156.458 163.652 155.673C163.417 154.871 163.088 154.1 162.672 153.375Z" fill="#04294F"/>
<path d="M167.423 155.99C167.402 155.949 167.37 155.915 167.331 155.891C167.292 155.868 167.246 155.856 167.201 155.857C167.091 155.848 166.981 155.873 166.886 155.928C166.79 155.983 166.715 156.067 166.668 156.167V156.252C166.618 156.56 166.589 156.871 166.583 157.183V158.025L166.627 158.867C166.638 159.178 166.666 159.489 166.713 159.797V159.842C166.712 159.887 166.724 159.933 166.747 159.972C166.771 160.011 166.805 160.043 166.846 160.063C166.886 160.105 166.934 160.139 166.987 160.162C167.041 160.185 167.098 160.196 167.156 160.196C167.215 160.196 167.272 160.185 167.325 160.162C167.379 160.139 167.427 160.105 167.467 160.063C167.717 159.789 167.909 159.467 168.031 159.117C168.153 158.767 168.203 158.395 168.177 158.025C168.168 157.66 168.093 157.3 167.955 156.961C167.848 156.604 167.667 156.273 167.423 155.99Z" fill="#04294F"/>
<path d="M259.601 204.034H259.515C259.428 204.048 259.338 204.028 259.264 203.979C259.19 203.93 259.138 203.855 259.116 203.769C258.717 202.75 258.361 201.775 257.962 200.8C257.839 200.572 257.735 200.335 257.651 200.091L257.296 199.425C257.055 198.982 256.788 198.554 256.496 198.142C255.935 197.302 255.246 196.554 254.454 195.926C253.66 195.284 252.758 194.789 251.79 194.464C251.743 194.447 251.7 194.42 251.663 194.386C251.627 194.352 251.598 194.312 251.577 194.266C251.556 194.221 251.545 194.172 251.543 194.122C251.542 194.073 251.55 194.023 251.568 193.976C249.286 193.692 246.969 194.029 244.863 194.951C238.913 197.3 234.385 202.575 236.782 208.557C236.882 208.769 236.957 208.992 237.004 209.222C232.442 205.47 226.923 203.061 221.066 202.264C214.716 201.334 210.277 205.632 209.344 211.97C208.968 214.449 209.243 216.984 210.143 219.325C203.794 217.419 196.467 217.242 188.653 218.926C182.392 220.3 179.639 226.415 181.016 232.709C182.393 239.003 187.321 242.946 193.626 241.572C200.33 240.11 204.504 241.351 206.103 242.99C206.809 243.767 207.258 244.742 207.388 245.783C207.44 245.913 207.484 246.046 207.522 246.181L207.655 246.758L207.741 247.333C207.785 247.687 207.785 248.044 207.741 248.397C207.718 248.754 207.674 249.11 207.608 249.461C207.444 250.409 207.206 251.342 206.897 252.253C206.519 255.118 207.224 258.021 208.874 260.397C210.524 262.772 213 264.449 215.821 265.101C216.68 265.299 217.56 265.388 218.44 265.367C220.438 265.36 222.4 264.844 224.141 263.866C225.882 262.889 227.344 261.483 228.386 259.783C229.408 256.566 230.107 253.255 230.474 249.9C230.969 245.881 230.606 241.803 229.408 237.934C228.208 234.103 226.072 230.631 223.192 227.83C220.232 225.01 216.864 222.649 213.202 220.827C213.103 220.772 213.03 220.682 212.997 220.575C212.963 220.468 212.973 220.352 213.023 220.251C213.068 220.155 213.148 220.078 213.247 220.037C213.345 219.996 213.456 219.994 213.556 220.03C217.459 221.624 221.05 223.889 224.169 226.721C225.731 228.185 227.103 229.837 228.254 231.641C229.387 233.445 230.297 235.379 230.962 237.402C231.589 239.433 231.977 241.531 232.116 243.651C232.235 245.47 232.175 247.295 231.939 249.102C232.781 249.297 233.645 249.387 234.51 249.368C237.139 249.37 239.691 248.481 241.748 246.846C243.805 245.212 245.246 242.929 245.834 240.372C246.263 238.502 246.575 236.607 246.766 234.698C247.35 234.834 247.944 234.923 248.542 234.964C248.881 235.001 249.222 235.016 249.563 235.009C252.47 235.002 255.269 233.913 257.413 231.953C259.557 229.994 260.891 227.307 261.153 224.417C261.644 216.927 261.2 209.88 259.601 204.034ZM194.906 231.247C191.443 231.468 189.045 228.499 188.868 225.618C188.69 222.738 190.821 221.009 194.284 220.743C197.748 220.522 198.769 223.223 198.946 226.106C199.125 229.026 198.371 231.061 194.908 231.242L194.906 231.247ZM213.688 226.859C213.65 227.382 213.514 227.892 213.288 228.365C213.076 228.849 212.792 229.297 212.445 229.695C212.405 229.737 212.357 229.771 212.303 229.794C212.25 229.817 212.192 229.829 212.134 229.829C212.076 229.829 212.018 229.817 211.965 229.794C211.911 229.771 211.863 229.737 211.823 229.695C211.734 229.598 211.687 229.471 211.69 229.34V229.297C211.735 228.809 211.867 228.365 211.912 227.967C211.993 227.542 212.052 227.114 212.089 226.684L212.223 225.355C212.267 224.912 212.267 224.424 212.356 223.98V223.937C212.363 223.881 212.382 223.827 212.411 223.778C212.439 223.73 212.478 223.688 212.524 223.654C212.569 223.621 212.621 223.598 212.676 223.585C212.731 223.573 212.789 223.571 212.844 223.582C212.978 223.582 213.066 223.667 213.155 223.803C213.417 224.272 213.598 224.781 213.688 225.31C213.732 225.824 213.733 226.341 213.69 226.855L213.688 226.859ZM216.841 225.131C217.196 225.932 217.421 226.784 217.506 227.656C217.632 228.523 217.647 229.401 217.551 230.272C217.502 230.703 217.428 231.132 217.329 231.555C217.195 231.954 217.107 232.397 216.974 232.796C216.694 233.63 216.273 234.411 215.73 235.105C215.701 235.152 215.661 235.191 215.615 235.222C215.569 235.252 215.516 235.272 215.462 235.28C215.407 235.288 215.351 235.284 215.298 235.269C215.245 235.253 215.195 235.227 215.153 235.19C215.085 235.14 215.033 235.072 215.001 234.994C214.97 234.916 214.961 234.83 214.975 234.747V234.703C215.197 233.906 215.42 233.197 215.597 232.399C215.696 232.02 215.771 231.635 215.819 231.247C215.864 230.847 215.952 230.493 215.997 230.094C216.082 229.34 216.13 228.543 216.174 227.745C216.174 226.947 216.174 226.149 216.13 225.397V225.352C216.135 225.244 216.178 225.14 216.251 225.059C216.324 224.979 216.422 224.926 216.53 224.909C216.664 224.86 216.798 224.993 216.842 225.126L216.841 225.131ZM227.275 213.43C225.765 215.911 224.078 217.108 221.058 215.336C218.084 213.519 217.818 209.752 219.283 207.27C220.792 204.79 223.5 204.522 226.475 206.339C229.497 208.153 228.787 210.989 227.277 213.426L227.275 213.43ZM236.822 224.111C236.205 224.715 235.501 225.223 234.734 225.618C234.65 225.665 234.552 225.681 234.457 225.664C234.363 225.647 234.277 225.597 234.214 225.524C234.151 225.452 234.116 225.359 234.114 225.263C234.111 225.167 234.142 225.073 234.201 224.997V224.953C234.742 224.363 235.246 223.742 235.711 223.092C235.933 222.781 236.155 222.472 236.377 222.117C236.62 221.8 236.829 221.458 236.999 221.097C237.403 220.437 237.773 219.757 238.109 219.059C238.464 218.35 238.775 217.596 239.085 216.887V216.843C239.104 216.792 239.133 216.745 239.17 216.706C239.208 216.667 239.253 216.636 239.303 216.615C239.353 216.594 239.407 216.584 239.461 216.585C239.516 216.586 239.569 216.599 239.618 216.621C239.693 216.656 239.754 216.713 239.794 216.785C239.834 216.856 239.85 216.939 239.84 217.02C239.804 217.891 239.655 218.753 239.396 219.586C239.133 220.407 238.775 221.196 238.33 221.935C238.109 222.289 237.842 222.644 237.62 222.998C237.413 223.406 237.144 223.78 236.823 224.107L236.822 224.111ZM247.167 232.749C247.158 232.803 247.138 232.854 247.107 232.9C247.077 232.945 247.038 232.984 246.992 233.013C246.946 233.043 246.894 233.062 246.84 233.07C246.786 233.078 246.731 233.074 246.678 233.06C246.586 233.043 246.504 232.993 246.447 232.92C246.389 232.846 246.361 232.754 246.367 232.661C246.413 230.668 246.234 228.676 245.835 226.722C245.458 224.762 244.924 222.835 244.236 220.961C243.553 219.087 242.675 217.29 241.617 215.599C240.547 213.898 239.328 212.295 237.976 210.809C237.932 210.773 237.897 210.727 237.875 210.675C237.853 210.623 237.844 210.566 237.848 210.509C237.852 210.453 237.87 210.398 237.9 210.35C237.93 210.302 237.971 210.262 238.02 210.233C238.089 210.164 238.181 210.122 238.278 210.115C238.375 210.107 238.472 210.135 238.551 210.192C240.194 211.508 241.631 213.061 242.814 214.801C243.993 216.543 244.962 218.417 245.7 220.386C246.447 222.356 246.954 224.41 247.21 226.502C247.573 228.569 247.559 230.686 247.168 232.748L247.167 232.749ZM246.634 207.887C246.375 206.359 246.735 204.791 247.635 203.527C248.535 202.264 249.901 201.409 251.432 201.15C254.274 200.575 256.316 202.48 256.938 205.848C257.559 209.217 255.029 210.638 252.187 211.167C249.299 211.653 247.302 211.299 246.635 207.883L246.634 207.887ZM257.468 222.379C257.369 222.692 257.203 222.98 256.98 223.222C256.759 223.451 256.505 223.645 256.225 223.797C255.635 224.1 254.951 224.163 254.316 223.974C254.258 223.951 254.205 223.916 254.162 223.871C254.119 223.826 254.086 223.773 254.065 223.714C254.044 223.655 254.036 223.593 254.041 223.531C254.045 223.469 254.064 223.409 254.094 223.354C254.126 223.287 254.172 223.227 254.227 223.177L254.271 223.133C254.464 222.966 254.672 222.818 254.892 222.69C255.086 222.56 255.295 222.456 255.514 222.379C255.704 222.254 255.914 222.164 256.136 222.113C256.358 221.999 256.598 221.924 256.846 221.892L256.98 221.847C257.097 221.832 257.215 221.86 257.313 221.925C257.411 221.99 257.482 222.089 257.513 222.202C257.47 222.201 257.47 222.289 257.47 222.378L257.468 222.379ZM258.311 216.44C258.062 217.022 257.7 217.549 257.246 217.992C256.799 218.438 256.308 218.839 255.781 219.189C255.247 219.529 254.663 219.784 254.049 219.943C253.435 220.149 252.785 220.225 252.14 220.164C252.03 220.154 251.927 220.103 251.853 220.021C251.778 219.939 251.738 219.832 251.74 219.721C251.74 219.647 251.761 219.575 251.8 219.512C251.839 219.449 251.895 219.399 251.962 219.366H252.006C252.539 219.101 253.028 218.879 253.516 218.613C254.004 218.374 254.478 218.107 254.937 217.815C255.381 217.549 255.869 217.195 256.314 216.885L257.69 215.91L257.735 215.865C257.823 215.801 257.933 215.773 258.041 215.789C258.149 215.805 258.246 215.863 258.311 215.951V216.44Z" fill="#FFB400"/>
<path d="M194.286 220.783C190.823 221.005 188.691 222.733 188.869 225.658C189.047 228.539 191.444 231.508 194.908 231.286C198.371 231.065 199.082 229.07 198.948 226.19C198.726 223.264 197.749 220.561 194.286 220.783Z" fill="#F04E23"/>
<path d="M226.522 206.335C223.547 204.518 220.793 204.784 219.328 207.266C218.503 208.573 218.226 210.153 218.559 211.662C218.891 213.172 219.806 214.49 221.104 215.332C224.08 217.149 225.811 215.908 227.321 213.426C228.786 210.989 229.497 208.152 226.522 206.335Z" fill="#F04E23"/>
<path d="M256.981 205.892C256.316 202.48 254.273 200.618 251.475 201.194C248.677 201.77 246.014 204.518 246.677 207.93C247.339 211.343 249.43 211.787 252.271 211.21C255.113 210.634 257.603 209.305 256.981 205.892Z" fill="#F04E23"/>
<path d="M231.939 243.784C231.799 241.663 231.412 239.566 230.784 237.535C230.155 235.498 229.244 233.558 228.076 231.773C226.925 229.97 225.553 228.318 223.991 226.855C220.873 224.022 217.281 221.756 213.379 220.162C213.33 220.139 213.276 220.127 213.222 220.126C213.168 220.125 213.114 220.135 213.064 220.156C213.014 220.177 212.968 220.208 212.931 220.247C212.893 220.286 212.864 220.333 212.846 220.384C212.816 220.432 212.797 220.487 212.789 220.543C212.782 220.6 212.787 220.658 212.804 220.712C212.821 220.767 212.849 220.817 212.887 220.86C212.925 220.903 212.971 220.937 213.023 220.96C216.689 222.777 220.057 225.138 223.014 227.962C225.885 230.77 228.02 234.24 229.23 238.067C230.385 241.944 230.747 246.013 230.296 250.033C229.93 253.388 229.231 256.699 228.209 259.916C227.987 260.581 227.81 261.29 227.588 261.954C227.552 262.055 227.554 262.165 227.595 262.263C227.637 262.362 227.713 262.441 227.81 262.486C227.859 262.509 227.912 262.521 227.967 262.522C228.021 262.523 228.075 262.513 228.125 262.492C228.175 262.472 228.22 262.441 228.257 262.401C228.295 262.362 228.323 262.316 228.342 262.265C229.997 258.413 231.132 254.359 231.717 250.21C231.77 249.917 231.798 249.621 231.803 249.324C232.024 247.486 232.07 245.631 231.939 243.784Z" fill="#04294F"/>
<path d="M245.749 220.384C245.01 218.416 244.042 216.541 242.863 214.8C241.68 213.06 240.243 211.506 238.6 210.191C238.562 210.157 238.519 210.132 238.471 210.115C238.424 210.099 238.373 210.093 238.323 210.097C238.273 210.102 238.225 210.116 238.181 210.14C238.136 210.163 238.098 210.196 238.067 210.235C237.986 210.307 237.937 210.407 237.929 210.515C237.92 210.622 237.954 210.729 238.023 210.812C239.376 212.298 240.594 213.901 241.664 215.601C242.713 217.297 243.591 219.094 244.283 220.964C244.997 222.829 245.532 224.758 245.881 226.725C246.259 228.682 246.438 230.671 246.414 232.664C246.41 232.756 246.439 232.847 246.496 232.921C246.553 232.994 246.634 233.044 246.725 233.062C246.83 233.077 246.937 233.054 247.027 232.997C247.116 232.94 247.183 232.853 247.214 232.752C247.575 230.687 247.604 228.578 247.3 226.503C247.014 224.412 246.494 222.359 245.749 220.384Z" fill="#04294F"/>
<path d="M251.742 194.455C252.71 194.78 253.612 195.275 254.406 195.918C255.187 196.558 255.874 197.304 256.448 198.134C256.741 198.545 257.008 198.973 257.248 199.417L257.603 200.082C257.725 200.31 257.829 200.547 257.914 200.791C258.352 201.76 258.737 202.751 259.068 203.761C259.101 203.84 259.156 203.907 259.227 203.955C259.299 204.002 259.383 204.027 259.468 204.026H259.554C259.646 204.009 259.728 203.959 259.786 203.886C259.843 203.812 259.871 203.72 259.865 203.627C259.745 201.333 259.009 199.114 257.734 197.202C257.074 196.218 256.211 195.387 255.203 194.764C254.21 194.115 253.059 193.747 251.873 193.7C251.788 193.702 251.705 193.728 251.634 193.775C251.563 193.822 251.507 193.889 251.473 193.966V194.052C251.431 194.192 251.52 194.37 251.742 194.455Z" fill="#04294F"/>
<path d="M216.087 225.303C216.132 226.101 216.132 226.943 216.132 227.698C216.117 228.484 216.057 229.268 215.954 230.047C215.909 230.446 215.821 230.8 215.776 231.2C215.691 231.598 215.644 231.953 215.554 232.352C215.377 233.105 215.155 233.859 214.933 234.661V234.705C214.908 234.788 214.912 234.877 214.944 234.958C214.976 235.038 215.035 235.106 215.111 235.148C215.333 235.281 215.554 235.281 215.687 235.063C216.239 234.377 216.66 233.595 216.931 232.758C217.109 232.359 217.153 231.916 217.286 231.517C217.372 231.074 217.464 230.675 217.508 230.234C217.605 229.364 217.59 228.486 217.464 227.62C217.346 226.753 217.123 225.905 216.798 225.093C216.763 225.019 216.706 224.957 216.634 224.917C216.562 224.878 216.479 224.862 216.398 224.872C216.31 224.907 216.235 224.967 216.18 225.043C216.125 225.119 216.093 225.21 216.087 225.303Z" fill="#04294F"/>
<path d="M213.112 223.796C213.027 223.664 212.935 223.575 212.801 223.575C212.69 223.561 212.577 223.59 212.487 223.656C212.396 223.721 212.334 223.82 212.313 223.93V223.973C212.268 224.417 212.227 224.905 212.18 225.348L212.046 226.677C212.01 227.107 211.95 227.535 211.869 227.96C211.824 228.403 211.692 228.802 211.647 229.29V229.333C211.651 229.463 211.698 229.588 211.78 229.688C211.82 229.73 211.868 229.764 211.922 229.787C211.975 229.81 212.033 229.822 212.091 229.822C212.149 229.822 212.207 229.81 212.26 229.787C212.314 229.764 212.362 229.73 212.402 229.688C212.773 229.309 213.061 228.856 213.245 228.358C213.441 227.875 213.575 227.369 213.645 226.852C213.698 226.335 213.683 225.814 213.601 225.301C213.547 224.77 213.38 224.258 213.112 223.796Z" fill="#04294F"/>
<path d="M238.421 222.068C238.866 221.328 239.223 220.54 239.487 219.719C239.771 218.893 239.92 218.027 239.931 217.153C239.932 217.073 239.911 216.995 239.872 216.925C239.834 216.855 239.777 216.796 239.709 216.754C239.66 216.731 239.607 216.719 239.552 216.718C239.498 216.717 239.444 216.727 239.394 216.748C239.344 216.769 239.299 216.8 239.261 216.839C239.224 216.878 239.195 216.925 239.176 216.976V217.02C238.865 217.729 238.554 218.482 238.199 219.192C237.864 219.89 237.492 220.571 237.085 221.23C236.858 221.558 236.65 221.898 236.463 222.25C236.241 222.56 236.019 222.87 235.798 223.225C235.309 223.845 234.776 224.422 234.288 225.086V225.131C234.229 225.187 234.192 225.263 234.183 225.344C234.175 225.425 234.196 225.507 234.243 225.574C234.298 225.672 234.389 225.745 234.496 225.778C234.604 225.811 234.72 225.801 234.821 225.751C235.586 225.352 236.288 224.844 236.907 224.244C237.237 223.951 237.535 223.624 237.796 223.269C237.931 222.834 238.143 222.428 238.421 222.068Z" fill="#04294F"/>
<path d="M257.647 215.908L256.226 216.927C255.783 217.237 255.294 217.548 254.85 217.858C254.392 218.15 253.917 218.416 253.429 218.655C252.94 218.921 252.408 219.143 251.92 219.409C251.857 219.446 251.804 219.497 251.765 219.559C251.726 219.621 251.703 219.691 251.698 219.764C251.696 219.874 251.736 219.982 251.81 220.064C251.884 220.146 251.987 220.197 252.097 220.207C252.742 220.243 253.387 220.168 254.006 219.985C254.613 219.807 255.195 219.554 255.738 219.232C256.293 218.922 256.789 218.516 257.203 218.034C257.638 217.576 257.997 217.053 258.269 216.483C258.295 216.418 258.304 216.348 258.296 216.278C258.288 216.209 258.264 216.142 258.225 216.084C258.205 216.029 258.173 215.979 258.131 215.938C258.088 215.898 258.037 215.867 257.981 215.85C257.924 215.833 257.865 215.829 257.807 215.84C257.749 215.85 257.694 215.873 257.647 215.908Z" fill="#04294F"/>
<path d="M257.026 221.802L256.892 221.846C256.652 221.907 256.415 221.981 256.182 222.068C255.98 222.167 255.772 222.256 255.561 222.334C255.363 222.455 255.155 222.559 254.939 222.644C254.711 222.762 254.502 222.911 254.317 223.087L254.273 223.132C254.228 223.176 254.187 223.264 254.14 223.309C254.108 223.423 254.112 223.543 254.152 223.655C254.191 223.766 254.265 223.862 254.362 223.93C254.675 224.033 255.007 224.071 255.335 224.04C255.664 224.009 255.982 223.911 256.271 223.752C256.551 223.6 256.806 223.406 257.026 223.176C257.264 222.946 257.434 222.655 257.514 222.334C257.514 222.248 257.558 222.201 257.514 222.112C257.483 222.011 257.416 221.925 257.327 221.868C257.238 221.811 257.131 221.788 257.026 221.802Z" fill="#04294F"/>
<path d="M207.607 248.482V247.418L207.521 246.842L207.388 246.266L207.255 245.867L206.988 245.202C206.944 245.126 206.878 245.064 206.8 245.025C206.721 244.985 206.632 244.97 206.544 244.98C206.492 244.99 206.442 245.011 206.398 245.042C206.355 245.073 206.319 245.113 206.293 245.16C206.268 245.207 206.253 245.259 206.25 245.312C206.248 245.366 206.257 245.419 206.278 245.468V245.512C206.347 245.804 206.392 246.1 206.412 246.399V247.418C206.367 248.038 206.233 248.701 206.145 249.324C205.839 250.587 205.376 251.808 204.768 252.958L204.546 253.401L204.324 253.845L203.836 254.731C203.525 255.306 203.17 255.842 202.77 256.459L201.656 258.143C201.257 258.719 200.856 259.251 200.502 259.827C200.453 259.902 200.431 259.99 200.439 260.079C200.447 260.167 200.485 260.25 200.546 260.315C200.582 260.356 200.626 260.39 200.676 260.413C200.726 260.436 200.78 260.448 200.835 260.448C200.889 260.448 200.944 260.436 200.993 260.413C201.043 260.39 201.087 260.356 201.123 260.315C201.656 259.827 202.144 259.34 202.633 258.808C203.121 258.276 203.565 257.744 204.009 257.213C204.454 256.636 204.808 256.06 205.208 255.484L205.741 254.554L205.963 254.066L206.185 253.579C206.405 253.132 206.598 252.673 206.763 252.204C207.114 251.306 207.352 250.369 207.473 249.413C207.549 249.108 207.594 248.796 207.607 248.482Z" fill="#04294F"/>
<path d="M205.618 172.209C206.941 172.35 215.625 167.106 220.449 173.998C223.53 178.4 224.409 187.416 211.519 192.228C200.378 196.388 189.35 196.085 186.988 194.598C184.625 193.111 183.179 175.127 183.89 168.038C184.778 159.184 194.24 152.428 200.951 157.053C209.239 162.767 203.967 172.034 205.618 172.209Z" fill="#F04E23"/>
<path d="M163.958 151.536C168.802 152.044 173.5 153.272 178.004 155.117C180.1 155.998 182.176 157.006 184.137 158.124C186.098 159.243 187.945 160.473 189.698 161.882C193.751 165.142 194.401 171.065 191.137 175.107C189.08 177.658 185.83 178.954 182.591 178.539L182.117 178.464C180.273 178.237 178.508 177.925 176.765 177.681C175.021 177.438 173.346 177.172 171.724 176.98C170.102 176.788 168.507 176.633 166.965 176.55C165.422 176.468 163.97 176.432 162.571 176.469C161.856 176.485 161.203 176.511 160.515 176.564C159.826 176.617 159.201 176.679 158.57 176.773C157.377 176.94 156.201 177.207 155.073 177.578C153.058 178.229 151.205 179.293 149.623 180.692C148.031 182.153 146.71 183.949 145.785 185.904C144.715 188.159 143.946 190.559 143.589 193.024C143.379 194.349 143.264 195.689 143.217 197.007L143.206 197.49C136.86 185.59 133.994 172.172 134.926 158.709C136.563 157.578 138.243 156.583 140.04 155.671C141.339 155.036 142.66 154.469 144.003 153.97C145.345 153.472 146.71 153.041 148.059 152.705C153.219 151.42 158.598 151.011 163.958 151.536Z" fill="#FAB316"/>
<path d="M187.085 168.161C189.715 162.596 181.226 157.276 178.417 164.17C175.609 171.064 184.977 172.676 187.085 168.161Z" fill="#E7421E"/>
<path d="M162.643 166.394C163.372 165.474 163.979 164.504 164.438 163.445C164.897 162.386 165.267 161.28 165.505 160.186C165.55 159.903 165.658 159.629 165.671 159.34L165.774 158.483C165.787 158.194 165.801 157.906 165.846 157.622L165.852 157.17L165.859 156.719C165.881 155.558 165.676 154.394 165.362 153.31C165.275 153.038 165.011 152.866 164.738 152.952C164.533 153.017 164.414 153.16 164.379 153.381L164.369 153.444C164.36 153.701 164.347 153.99 164.307 154.242C164.287 154.368 164.299 154.499 164.31 154.631C164.322 154.762 164.302 154.888 164.282 155.014L164.22 155.813L164.127 156.606L164.099 156.99L164.034 157.4C163.994 157.652 163.954 157.904 163.909 158.188C163.798 158.688 163.713 159.224 163.601 159.724C163.373 160.754 163.114 161.78 162.791 162.796C162.468 163.812 162.146 164.828 161.791 165.838L161.786 165.87C161.651 166.107 161.733 166.411 161.971 166.546C162.204 166.712 162.508 166.631 162.643 166.394Z" fill="#E7421E"/>
<path d="M168.289 164.701C168.785 164.23 169.196 163.681 169.49 163.048C169.812 162.452 170.043 161.81 170.179 161.153C170.352 160.469 170.426 159.802 170.404 159.119C170.387 158.405 170.234 157.734 170.013 157.085C169.895 156.808 169.589 156.695 169.343 156.817C169.175 156.855 169.055 156.998 169.03 157.156L169.02 157.219C168.857 157.84 168.762 158.439 168.672 159.007C168.551 159.569 168.429 160.132 168.303 160.726C168.176 161.321 168.023 161.878 167.87 162.436C167.717 162.994 167.554 163.615 167.428 164.209L167.418 164.272C167.373 164.556 167.527 164.807 167.807 164.883C168.001 164.882 168.17 164.844 168.289 164.701Z" fill="#E7421E"/>
<path d="M294.251 116.045C292.284 115.308 290.232 114.825 288.143 114.608C286.841 114.454 285.532 114.367 284.221 114.345C284.151 113.063 284.051 111.781 283.904 110.483C283.685 108.419 283.292 106.378 282.73 104.38C282.698 104.264 282.636 104.158 282.551 104.073C282.465 103.988 282.36 103.926 282.244 103.893C282.063 103.839 281.869 103.859 281.703 103.948C281.537 104.037 281.413 104.189 281.359 104.369L281.356 104.38C280.794 106.378 280.402 108.419 280.182 110.483C280.036 111.788 279.928 113.102 279.866 114.407C278.561 114.469 277.247 114.577 275.943 114.724C273.881 114.943 271.84 115.336 269.843 115.898C269.73 115.936 269.627 116 269.543 116.084C269.458 116.169 269.395 116.272 269.357 116.386C269.33 116.475 269.321 116.569 269.33 116.662C269.34 116.754 269.367 116.845 269.411 116.927C269.456 117.009 269.516 117.082 269.588 117.141C269.66 117.2 269.743 117.244 269.833 117.271L269.843 117.274C271.84 117.836 273.881 118.229 275.943 118.448C277.225 118.595 278.507 118.695 279.804 118.765C279.826 120.076 279.913 121.386 280.066 122.689C280.284 124.778 280.767 126.831 281.503 128.798C281.532 128.873 281.577 128.942 281.634 128.999C281.691 129.056 281.759 129.101 281.835 129.13C281.981 129.187 282.144 129.183 282.288 129.121C282.432 129.059 282.547 128.943 282.607 128.798C283.336 126.829 283.819 124.776 284.043 122.688C284.197 121.406 284.267 120.123 284.298 118.825C285.589 118.817 286.878 118.732 288.159 118.571C290.246 118.346 292.297 117.863 294.266 117.134C294.375 117.086 294.468 117.008 294.534 116.909C294.599 116.809 294.634 116.693 294.634 116.574C294.634 116.455 294.599 116.338 294.534 116.239C294.468 116.139 294.375 116.061 294.266 116.014L294.251 116.045Z" fill="#FFB400"/>
<g clip-path="url(#clip0_50_121)">
<path d="M280.025 320.401C282.13 319.692 291.586 305.72 303.784 312.756C311.574 317.248 319.293 330.241 303.152 346.494C289.201 360.542 272.262 367.777 267.626 367.182C262.989 366.586 248.06 340.456 244.117 329.263C239.194 315.283 248.759 298.488 262.212 300.786C278.829 303.627 277.396 321.289 280.025 320.401Z" fill="#F04E23"/>
</g>
<g clip-path="url(#clip1_50_121)">
<path d="M59.2907 49.9897C60.1163 49.1667 61.3175 40.3973 68.6902 40.8722C73.3986 41.1752 80.0485 45.493 76.2329 56.8893C72.9351 66.739 66.6485 74.0786 64.3293 74.8761C62.0101 75.6736 48.9153 66.8515 44.4597 62.5025C38.8947 57.0706 39.4913 46.9479 46.3537 44.9027C54.83 42.3772 58.2605 51.0181 59.2907 49.9897Z" fill="#F04E23"/>
</g>
<defs>
<clipPath id="clip0_50_121">
<rect width="70.5221" height="62.8981" fill="white" transform="translate(248.431 297.039) rotate(14.8446)"/>
</clipPath>
<clipPath id="clip1_50_121">
<rect width="37" height="33" fill="white" transform="translate(39 46.3423) rotate(-11.4457)"/>
</clipPath>
</defs>
</svg>
