<svg width="16" height="16" viewBox="0 0 16 16" fill="none" xmlns="http://www.w3.org/2000/svg">
<path d="M10.6667 13.3332C10.2994 13.3332 10.0001 13.0345 10.0001 12.6665V7.99984C10.0001 7.26317 9.40341 6.6665 8.66675 6.6665H5.33341C4.96541 6.6665 4.66675 6.96517 4.66675 7.33317C4.66675 7.70117 4.96141 7.99984 5.33341 7.99984C5.70541 7.99984 6.00008 8.2985 6.00008 8.6665V12.6665C6.00008 13.0345 5.71008 13.3332 5.33341 13.3332C4.95675 13.3332 4.66675 13.6318 4.66675 13.9998C4.66675 14.3678 4.96541 14.6665 5.33341 14.6665H10.6667C11.0347 14.6665 11.3334 14.3678 11.3334 13.9998C11.3334 13.6318 11.0341 13.3332 10.6667 13.3332Z" fill="#4E5A65"/>
<path opacity="0.35" d="M8 5.3335C9.10457 5.3335 10 4.43807 10 3.3335C10 2.22893 9.10457 1.3335 8 1.3335C6.89543 1.3335 6 2.22893 6 3.3335C6 4.43807 6.89543 5.3335 8 5.3335Z" fill="#4E5A65"/>
</svg>
