<svg width="16" height="16" viewBox="0 0 16 16" fill="none" xmlns="http://www.w3.org/2000/svg">
<path d="M5.78745 2.56784L6.95878 4.03184C7.49278 4.69917 8.50745 4.69917 9.04078 4.03184L10.2121 2.56784C10.4561 2.2625 10.3868 1.81384 10.0614 1.5965L9.22145 1.0365C8.86012 0.795171 8.43478 0.666504 8.00012 0.666504C7.56545 0.666504 7.14012 0.795171 6.77878 1.0365L5.93878 1.5965C5.61345 1.81317 5.54345 2.2625 5.78745 2.56784Z" fill="#22313F"/>
<path opacity="0.35" d="M8.00008 14.6667C5.05941 14.6667 2.66675 12.274 2.66675 9.33333C2.66675 6.39267 5.05941 4 8.00008 4C10.9407 4 13.3334 6.39267 13.3334 9.33333C13.3334 12.274 10.9407 14.6667 8.00008 14.6667ZM8.00008 6C6.16208 6 4.66675 7.49533 4.66675 9.33333C4.66675 11.1713 6.16208 12.6667 8.00008 12.6667C9.83808 12.6667 11.3334 11.1713 11.3334 9.33333C11.3334 7.49533 9.83808 6 8.00008 6Z" fill="#22313F"/>
</svg>
