<svg width="16" height="16" viewBox="0 0 16 16" fill="none" xmlns="http://www.w3.org/2000/svg">
<path opacity="0.35" d="M14.0733 4.7799L11.2266 1.92656C10.46 1.1599 9.18662 1.1599 8.42662 1.92656L1.92662 8.42656C1.53329 8.8199 1.31329 9.35989 1.33329 9.91323C1.35329 10.4399 1.57329 10.9132 1.92662 11.2199L4.77995 14.0732C5.15995 14.4599 5.65995 14.6666 6.17995 14.6666C6.69995 14.6666 7.19329 14.4599 7.57995 14.0732L14.0733 7.5799C14.46 7.19323 14.6666 6.6999 14.6666 6.1799C14.6666 5.6599 14.46 5.1599 14.0733 4.7799Z" fill="#22313F"/>
<path d="M11.14 6.47354C11.0067 6.6002 10.84 6.66687 10.6667 6.66687C10.4934 6.66687 10.3267 6.6002 10.1934 6.47354L7.04004 3.3202L7.98671 2.37354L11.14 5.52687C11.4 5.78687 11.4 6.21354 11.14 6.47354Z" fill="#22313F"/>
<path d="M7.80679 7.80654C7.67345 7.93321 7.50679 7.99988 7.33345 7.99988C7.16012 7.99988 6.99345 7.93321 6.86012 7.80654L4.70679 5.65321L5.65345 4.70654L7.80679 6.85988C8.06679 7.11988 8.06679 7.54654 7.80679 7.80654Z" fill="#22313F"/>
<path d="M3.34657 7.00684L6.47324 10.2002C6.73324 10.4602 6.72657 10.8868 6.46657 11.1402C6.3399 11.2668 6.16657 11.3335 5.9999 11.3335C5.82657 11.3335 5.65324 11.2668 5.52657 11.1335L2.3999 7.9535L3.34657 7.00684Z" fill="#22313F"/>
</svg>
