<svg width="40" height="40" viewBox="0 0 40 40" fill="none" xmlns="http://www.w3.org/2000/svg">
<rect width="40" height="40" fill="white"/>
<path opacity="0.4" d="M18.0833 23.958H11.5078C10.6756 23.958 10 24.6217 10 25.4393C10 26.2559 10.6756 26.9207 11.5078 26.9207H18.0833C18.9155 26.9207 19.5911 26.2559 19.5911 25.4393C19.5911 24.6217 18.9155 23.958 18.0833 23.958Z" fill="#22313F"/>
<path opacity="0.4" d="M30.0001 14.3787C30.0001 13.5621 29.3246 12.8984 28.4934 12.8984H21.9179C21.0857 12.8984 20.4102 13.5621 20.4102 14.3787C20.4102 15.1963 21.0857 15.86 21.9179 15.86H28.4934C29.3246 15.86 30.0001 15.1963 30.0001 14.3787Z" fill="#22313F"/>
<path d="M16.8777 14.3786C16.8777 16.2452 15.3389 17.7582 13.4389 17.7582C11.54 17.7582 10 16.2452 10 14.3786C10 12.513 11.54 11 13.4389 11C15.3389 11 16.8777 12.513 16.8777 14.3786Z" fill="#22313F"/>
<path d="M30.0001 25.3992C30.0001 27.2648 28.4612 28.7777 26.5612 28.7777C24.6623 28.7777 23.1223 27.2648 23.1223 25.3992C23.1223 23.5325 24.6623 22.0195 26.5612 22.0195C28.4612 22.0195 30.0001 23.5325 30.0001 25.3992Z" fill="#22313F"/>
</svg>
