<svg width="96" height="96" viewBox="0 0 96 96" fill="none" xmlns="http://www.w3.org/2000/svg">
<rect width="96" height="96" rx="24" fill="#F4F5F5"/>
<g clip-path="url(#clip0_50_525)">
<path d="M68.3646 23.7273V72.2726C68.3646 76.5406 64.9041 79.9999 60.6374 79.9999H35.364C31.0972 79.9999 27.6367 76.5406 27.6367 72.2726V23.7273C27.6366 19.4592 31.0972 16 35.364 16H60.6374C64.9041 16 68.3646 19.4592 68.3646 23.7273V23.7273Z" fill="#696EAF"/>
<path d="M48.3843 64.4849C50.4552 69.4767 53.147 74.6733 56.6075 80H35.364C31.0972 80 27.6367 76.5408 27.6367 72.2728V23.7273C27.6366 19.4592 31.0972 16 35.364 16H44.3418C43.4996 18.9879 42.2953 24.4472 42.0932 31.5615H68.3647V60.611L53.9468 60.5918L53.2476 61.6955C52.1463 63.3451 50.3485 64.3702 48.3843 64.4849Z" fill="#4C5696"/>
<path d="M62.546 27.6141V58.6894C62.546 59.3591 62.4326 60.003 62.2227 60.6019C62.2215 60.6045 62.2214 60.607 62.2201 60.6096C61.4281 62.8647 59.2798 64.4849 56.7504 64.4849H39.2507C36.0413 64.4849 33.4552 61.8795 33.4552 58.6894V27.6141C33.4552 24.4125 36.0503 21.8186 39.2507 21.8186H56.7504C59.9508 21.8186 62.546 24.4125 62.546 27.6141V27.6141Z" fill="#F1F2F5"/>
<path d="M62.5459 31.5615V58.6895C62.5459 59.3592 62.4326 60.0031 62.2227 60.602L53.9468 60.5917L53.2476 61.6955C52.1464 63.3452 50.3486 64.3704 48.3846 64.4851H39.2509C36.0416 64.4851 33.4554 61.8797 33.4554 58.6896V27.6141C33.4554 24.4125 36.0506 21.8186 39.2509 21.8186H43.0476C42.5839 24.5284 42.2002 27.815 42.0932 31.5615H62.5459Z" fill="#E8E9EA"/>
<path d="M56.7274 72.2432C56.7274 73.3135 55.8594 74.1815 54.7891 74.1815H41.2122C40.142 74.1815 39.274 73.3135 39.274 72.2432C39.274 71.1717 40.142 70.3037 41.2122 70.3037H54.7891C55.8592 70.3036 56.7274 71.1716 56.7274 72.2432V72.2432Z" fill="#4C5696"/>
<path d="M53.0955 74.1815H41.2122C40.142 74.1815 39.274 73.3135 39.274 72.2432C39.274 71.1717 40.142 70.3037 41.2122 70.3037H51.044C51.684 71.5851 52.3666 72.8781 53.0955 74.1815V74.1815Z" fill="#3F4C89"/>
<path d="M78.0611 39.7048V52.4162C78.0611 54.7974 76.1306 56.728 73.7492 56.728H53.1521C52.6241 56.728 52.1192 56.9032 51.7097 57.2162C51.5024 57.3733 51.3207 57.5652 51.1727 57.7879L50.0162 59.5214C49.058 60.9599 46.9433 60.9599 45.9838 59.5214L44.8273 57.7879C44.3868 57.1259 43.6437 56.728 42.8478 56.728H22.2507C19.8695 56.728 17.9388 54.7975 17.9388 52.4162L17.9401 39.7048C17.9401 37.3235 19.8706 35.3943 22.2506 35.3943H73.7504C76.1305 35.3943 78.0611 37.3235 78.0611 39.7048Z" fill="#FFE0B7"/>
<path d="M32.795 44.331V51H34.498V42.108H33.211L30.598 43.993L31.456 45.306L32.795 44.331ZM44.4397 49.453V51H50.3417V49.505H46.7407L46.7017 49.427C47.7287 48.4 48.4307 47.698 48.8207 47.321C49.7567 46.411 50.2247 45.462 50.2247 44.5C50.2247 44.019 50.0947 43.577 49.8607 43.187C49.6137 42.797 49.2757 42.485 48.8337 42.251C48.3917 42.017 47.8717 41.9 47.2867 41.9C46.7537 41.9 46.2857 42.004 45.8827 42.199C45.4667 42.407 45.1417 42.667 44.8817 42.979C44.6217 43.291 44.4527 43.616 44.3617 43.954L45.8957 44.591C45.9867 44.279 46.1427 44.019 46.3767 43.811C46.5977 43.603 46.8967 43.499 47.2607 43.499C47.6247 43.499 47.9237 43.603 48.1577 43.811C48.3787 44.019 48.4957 44.279 48.4957 44.578C48.4957 44.864 48.4307 45.124 48.3137 45.345C48.1967 45.579 47.9887 45.852 47.6767 46.19C47.3127 46.58 46.2337 47.672 44.4397 49.453ZM62.6923 51.208C63.3033 51.208 63.8493 51.091 64.3173 50.857C64.7853 50.623 65.1623 50.311 65.4223 49.895C65.6823 49.492 65.8123 49.037 65.8123 48.517C65.8123 47.997 65.6693 47.542 65.4093 47.165C65.1363 46.801 64.7853 46.528 64.3563 46.346V46.242C64.6683 46.086 64.9283 45.839 65.1493 45.501C65.3703 45.163 65.4873 44.76 65.4873 44.279C65.4873 43.837 65.3573 43.434 65.1233 43.07C64.8763 42.706 64.5383 42.42 64.0963 42.212C63.6543 42.004 63.1603 41.9 62.6143 41.9C61.8603 41.9 61.2363 42.095 60.7423 42.472C60.2483 42.862 59.9233 43.304 59.7413 43.824L61.2883 44.461C61.3663 44.175 61.5223 43.941 61.7433 43.746C61.9513 43.564 62.2373 43.46 62.6013 43.46C62.9393 43.46 63.2123 43.564 63.4333 43.746C63.6413 43.941 63.7583 44.188 63.7583 44.474C63.7583 44.838 63.6153 45.124 63.3553 45.306C63.0953 45.501 62.7703 45.592 62.3933 45.592H61.6913V47.139H62.4583C62.9523 47.139 63.3423 47.256 63.6283 47.477C63.9143 47.698 64.0703 47.997 64.0703 48.361C64.0703 48.712 63.9273 48.998 63.6543 49.219C63.3813 49.453 63.0563 49.557 62.6923 49.557C62.2763 49.557 61.9383 49.453 61.6783 49.219C61.4053 48.985 61.2233 48.66 61.1193 48.231L59.5073 48.868C59.7153 49.635 60.1183 50.22 60.6903 50.61C61.2623 51.013 61.9383 51.208 62.6923 51.208Z" fill="#22313F"/>
<path d="M51.0411 28.4805C51.047 26.6059 49.6895 26.4255 48.0144 26.4203C46.3392 26.415 44.9806 26.5869 44.9748 28.4615C44.9689 30.336 46.3221 31.8599 47.9974 31.8651C49.6724 31.8705 51.0353 30.3552 51.0411 28.4805Z" fill="#495560"/>
<path d="M41.7981 28.4593C41.2651 28.4593 40.8305 28.0268 40.8321 27.4905C40.8335 27.0346 40.466 26.6645 40.01 26.6631C39.5532 26.6617 39.184 27.0303 39.1826 27.4852C39.181 28.0176 38.7487 28.4481 38.2167 28.4481C37.6839 28.4481 37.2491 28.0156 37.2507 27.4792C37.2555 25.9598 38.4865 24.7312 40.007 24.7312C41.5292 24.7312 42.7686 25.9715 42.7639 27.4965C42.7624 28.0288 42.3301 28.4593 41.7981 28.4593V28.4593Z" fill="#495560"/>
<path d="M57.8051 28.5094C57.2723 28.5094 56.8375 28.0769 56.8391 27.5405C56.8405 27.0846 56.4729 26.7145 56.0169 26.7131C55.5623 26.7118 55.191 27.0804 55.1895 27.5354C55.1878 28.0677 54.7556 28.4983 54.2236 28.4983C53.6905 28.4983 53.256 28.0656 53.2576 27.5293C53.2625 26.0123 54.4983 24.7812 56.0141 24.7812C57.5365 24.7812 58.7756 26.022 58.7709 27.5465C58.7693 28.0789 58.3371 28.5094 57.8051 28.5094Z" fill="#495560"/>
</g>
<defs>
<clipPath id="clip0_50_525">
<rect width="64" height="64" fill="white" transform="translate(16 16)"/>
</clipPath>
</defs>
</svg>
