<svg width="96" height="96" viewBox="0 0 96 96" fill="none" xmlns="http://www.w3.org/2000/svg">
<rect width="96" height="96" rx="24" fill="#F4F5F5"/>
<g clip-path="url(#clip0_50_588)">
<path d="M73.0855 46.1C67.8776 36.6638 58.3396 31.9483 51.7819 35.5675C45.2242 39.1868 44.1301 49.7703 49.338 59.2065C54.546 68.6427 64.0839 73.3582 70.6416 69.739C77.1993 66.1197 78.2935 55.5361 73.0855 46.1Z" fill="#FFDE55"/>
<path d="M51.7831 35.5669C45.2253 39.1863 44.131 49.7703 49.3391 59.2068C51.1014 62.3998 53.3596 65.0513 55.8303 67.0233C56.3885 62.7505 57.9289 58.1387 61.7676 56.0192C66.8841 53.194 69.2469 46.5138 70.295 41.9608C64.9128 35.3718 57.2954 32.5247 51.7831 35.5669Z" fill="#FFCD00"/>
<path d="M44.4784 62.0551L46.7047 60.8094C47.4701 60.3811 47.9444 59.5725 47.9444 58.6954V39.8794H33.4479V70.7753C33.4479 72.8065 34.2492 74.7558 35.6779 76.1996L38.5531 79.1056C39.733 80.298 41.6594 80.298 42.8392 79.1056L45.7144 76.1996C47.143 74.7558 47.9444 72.8065 47.9444 70.7753V66.794C47.9444 65.9169 47.4702 65.1083 46.7047 64.68L44.4784 63.4343C43.9392 63.1325 43.9392 62.3568 44.4784 62.0551Z" fill="#D8D7DA"/>
<path d="M33.4479 61.0433C38.953 57.4024 45.234 55.69 47.9442 55.0763V39.8794H33.4479V61.0433Z" fill="#C6C5CA"/>
<path d="M40.6961 80C41.4726 80 42.2492 79.7019 42.8391 79.1056L45.7144 76.1996C47.143 74.7558 47.9444 72.8065 47.9444 70.7753V66.794C47.9444 65.9169 47.4702 65.1083 46.7047 64.68L44.4784 63.4343C43.9394 63.1326 43.9394 62.357 44.4784 62.0554L46.7047 60.8096C47.4701 60.3814 47.9444 59.5728 47.9444 58.6956V39.8794H40.6961V80Z" fill="#C6C5CA"/>
<path d="M40.6962 57.3255C43.7309 56.1234 46.41 55.4238 47.9444 55.0763V39.8794H40.6962V57.3255Z" fill="#ACABB1"/>
<path d="M61.0303 29.5582C60.1964 25.1897 56.3389 22.0522 51.8916 22.0522H29.5006C25.0534 22.0522 21.196 25.1899 20.362 29.5582C19.379 34.7075 19.379 39.9981 20.362 45.1474C21.1959 49.5159 25.0534 52.6534 29.5006 52.6534H51.8915C56.3388 52.6534 60.1961 49.5157 61.0301 45.1474C62.0133 39.998 62.0133 34.7075 61.0303 29.5582ZM47.9443 31.1764C47.9443 33.1459 46.3478 34.7424 44.3783 34.7424H37.0139C35.0444 34.7424 33.4479 33.1459 33.4479 31.1764C33.4479 29.2069 35.0444 27.6104 37.0139 27.6104H44.3783C46.3478 27.6104 47.9443 29.2069 47.9443 31.1764Z" fill="#EAEAEA"/>
<path d="M51.8915 22.052H29.5006C25.0534 22.052 21.196 25.1896 20.362 29.558C19.379 34.7072 19.379 39.9979 20.362 45.1471C21.1959 49.5155 25.0534 52.6531 29.5006 52.6531H33.3668C32.7535 51.3805 32.2915 49.8485 32.0658 47.9997C30.6836 36.6847 39.1155 34.7422 39.1155 34.7422H37.0138C35.0443 34.7422 33.4478 33.1457 33.4478 31.1762C33.4478 29.2067 35.0443 27.6102 37.0138 27.6102H44.3781C45.4224 27.6102 46.3618 28.0591 47.0139 28.7745C48.4355 25.6109 50.9484 23.5405 53.5031 22.1916C52.978 22.1001 52.4393 22.052 51.8915 22.052Z" fill="#D8D7DA"/>
<path d="M52.9668 16C44.1814 16 37.0339 23.1474 37.0339 31.9327C37.0339 32.8913 37.119 33.8301 37.282 34.7423H42.3069C42.07 33.8449 41.9428 32.9034 41.9428 31.9327C41.9428 25.8541 46.8881 20.9088 52.9669 20.9088C59.0456 20.9088 63.9909 25.8541 63.9909 31.9327C63.9909 34.4317 63.1539 36.7381 61.747 38.5891C61.6845 41.2291 61.2134 44.6065 60.8914 45.7515C65.6733 42.9986 68.8996 37.8354 68.8996 31.9326C68.8995 23.1474 61.7521 16 52.9668 16Z" fill="#FFEDB3"/>
<path d="M60.8913 45.7514C65.6731 42.9985 68.8995 37.8353 68.8995 31.9327C68.8995 31.337 68.8655 30.7493 68.8015 30.1704C67.7954 31.1107 66.2187 32.3095 63.8887 33.4212C63.6276 35.3445 62.8694 37.112 61.7469 38.589C61.6844 41.2289 61.2133 44.6065 60.8913 45.7514Z" fill="#F9E491"/>
<path d="M40.696 46.9379C38.6975 46.9379 37.0775 45.3178 37.0775 43.3194V40.6886C37.0775 40.1429 37.5197 39.7007 38.0654 39.7007H43.3269C43.8725 39.7007 44.3148 40.1429 44.3148 40.6886V43.3194C44.3145 45.3178 42.6946 46.9379 40.696 46.9379Z" fill="#57565C"/>
<path d="M28.5923 46.3926C30.7239 46.3926 32.452 45.0165 32.452 43.319C32.452 41.6215 30.7239 40.2454 28.5923 40.2454C26.4606 40.2454 24.7325 41.6215 24.7325 43.319C24.7325 45.0165 26.4606 46.3926 28.5923 46.3926Z" fill="#FFA6BB"/>
<path d="M52.8002 46.3926C54.9319 46.3926 56.66 45.0165 56.66 43.319C56.66 41.6215 54.9319 40.2454 52.8002 40.2454C50.6686 40.2454 48.9405 41.6215 48.9405 43.319C48.9405 45.0165 50.6686 46.3926 52.8002 46.3926Z" fill="#FFA6BB"/>
<path d="M51.0825 41.6323C50.549 41.6323 50.1167 41.1999 50.1167 40.6665V39.0632C50.1167 38.5298 50.549 38.0974 51.0825 38.0974C51.616 38.0974 52.0482 38.5298 52.0482 39.0632V40.6665C52.0484 41.1998 51.6159 41.6323 51.0825 41.6323Z" fill="#57565C"/>
<path d="M30.3097 41.6323C29.7762 41.6323 29.344 41.1999 29.344 40.6665V39.0632C29.344 38.5298 29.7762 38.0974 30.3097 38.0974C30.8432 38.0974 31.2755 38.5298 31.2755 39.0632V40.6665C31.2755 41.1998 30.8432 41.6323 30.3097 41.6323Z" fill="#57565C"/>
</g>
<defs>
<clipPath id="clip0_50_588">
<rect width="64" height="64" fill="white" transform="translate(16 16)"/>
</clipPath>
</defs>
</svg>
