<svg width="96" height="96" viewBox="0 0 96 96" fill="none" xmlns="http://www.w3.org/2000/svg">
<rect width="96" height="96" rx="24" fill="#F4F5F5"/>
<g clip-path="url(#clip0_50_660)">
<path d="M68.3061 65.0436C79.5245 53.8252 79.5245 35.6367 68.3061 24.4183C57.0878 13.1999 38.8992 13.1999 27.6808 24.4183C16.4625 35.6367 16.4625 53.8252 27.6808 65.0436C38.8992 76.262 57.0878 76.262 68.3061 65.0436Z" fill="#EFEDFF"/>
<path d="M36.5777 52.9275C35.0793 54.8696 34.2035 57.2137 34.2035 59.738C34.2035 66.4429 40.3803 71.8782 48 71.8782C55.6196 71.8782 61.7964 66.4429 61.7964 59.738C61.7964 57.2137 60.9207 54.8696 59.4222 52.9275C55.4093 52.9275 40.5906 52.9275 36.5777 52.9275Z" fill="#A78CD6"/>
<path d="M59.4223 52.9277C56.9407 49.7113 52.7509 47.5979 47.9999 47.5979C43.2489 47.5979 39.0592 49.7112 36.5775 52.9277C39.7787 54.7098 43.7435 55.6729 47.9999 55.6729C52.2563 55.6729 56.221 54.7098 59.4223 52.9277Z" fill="#807BCF"/>
<path d="M64.0309 38.9795C64.0309 30.5378 56.8537 24.3511 47.9999 24.3511C39.1462 24.3511 31.9689 30.5378 31.9689 38.9795C31.9689 47.4211 39.1462 52.0671 47.9999 52.0671C56.8537 52.0671 64.0309 47.4211 64.0309 38.9795Z" fill="#A78CD6"/>
<path d="M37.7552 44.418C39.8429 44.418 41.5353 43.0702 41.5353 41.4077C41.5353 39.7452 39.8429 38.3975 37.7552 38.3975C35.6675 38.3975 33.9751 39.7452 33.9751 41.4077C33.9751 43.0702 35.6675 44.418 37.7552 44.418Z" fill="white"/>
<path d="M58.2447 44.418C60.3324 44.418 62.0248 43.0702 62.0248 41.4077C62.0248 39.7452 60.3324 38.3975 58.2447 38.3975C56.157 38.3975 54.4646 39.7452 54.4646 41.4077C54.4646 43.0702 56.157 44.418 58.2447 44.418Z" fill="white"/>
<path d="M39.9583 39.4473C39.4404 39.4473 39.0208 39.0277 39.0208 38.5098V36.9646C39.0208 36.4467 39.4404 36.0271 39.9583 36.0271C40.4761 36.0271 40.8958 36.4467 40.8958 36.9646V38.5098C40.8958 39.0277 40.4761 39.4473 39.9583 39.4473Z" fill="#565E75"/>
<path d="M56.0416 39.4473C55.5238 39.4473 55.1041 39.0277 55.1041 38.5098V36.9646C55.1041 36.4467 55.5238 36.0271 56.0416 36.0271C56.5595 36.0271 56.9791 36.4467 56.9791 36.9646V38.5098C56.9791 39.0277 56.5595 39.4473 56.0416 39.4473Z" fill="#565E75"/>
<path d="M48 40.3673C46.9165 40.3673 45.8862 39.8981 45.1732 39.0798C44.8329 38.6895 44.8738 38.0973 45.264 37.7571C45.6543 37.417 46.2464 37.4576 46.5868 37.848C46.9435 38.2575 47.4587 38.4923 48.0002 38.4923C48.5415 38.4923 49.0567 38.2575 49.4135 37.848C49.7539 37.4577 50.3457 37.4171 50.7363 37.7571C51.1265 38.0973 51.1673 38.6895 50.8272 39.0798C50.1139 39.8982 49.0835 40.3673 48 40.3673Z" fill="#565E75"/>
<path d="M71.2569 58.8367H37.2999C31.9689 63.164 31.9689 76.1731 41.994 79.9999H71.2569C75.1913 79.9999 78.3808 76.8104 78.3808 72.8762V65.9605C78.3808 62.026 75.1913 58.8367 71.2569 58.8367Z" fill="#F5EA72"/>
<path d="M24.743 58.8367C20.8086 58.8367 17.6191 62.0262 17.6191 65.9605V72.8762C17.6191 76.8105 20.8086 79.9999 24.743 79.9999H41.9941C35.5363 74.6544 36.1179 62.5494 37.3 58.8367H24.743Z" fill="#EBCA5F"/>
<path d="M28.9338 65.0806L25.7161 68.2983C25.0976 68.9168 25.0976 69.9196 25.7161 70.5381L28.9338 73.7558C29.5523 74.3743 30.5551 74.3743 31.1736 73.7558L34.3913 70.5381C35.0098 69.9196 35.0098 68.9168 34.3913 68.2983L31.1736 65.0806C30.5551 64.4621 29.5523 64.4621 28.9338 65.0806Z" fill="#DE5C6E"/>
<path d="M68.4706 67.5242H42.3482C41.8304 67.5242 41.4107 67.1045 41.4107 66.5867C41.4107 66.0688 41.8304 65.6492 42.3482 65.6492H68.4705C68.9883 65.6492 69.408 66.0688 69.408 66.5867C69.4081 67.1045 68.9883 67.5242 68.4706 67.5242Z" fill="#807BCF"/>
<path d="M51.0966 73.1875H42.3482C41.8304 73.1875 41.4107 72.7679 41.4107 72.25C41.4107 71.7321 41.8304 71.3125 42.3482 71.3125H51.0966C51.6145 71.3125 52.0341 71.7321 52.0341 72.25C52.0341 72.7679 51.6145 73.1875 51.0966 73.1875Z" fill="#807BCF"/>
</g>
<defs>
<clipPath id="clip0_50_660">
<rect width="64" height="64" fill="white" transform="translate(16 16)"/>
</clipPath>
</defs>
</svg>
