<svg width="18" height="18" viewBox="0 0 18 18" fill="none" xmlns="http://www.w3.org/2000/svg">
<path d="M15.07 5.50965L6.51002 1.22965C0.76002 -1.65035 -1.59998 0.709646 1.28002 6.45965L2.15002 8.19965C2.40002 8.70965 2.40002 9.29965 2.15002 9.80965L1.28002 11.5396C-1.59998 17.2896 0.75002 19.6496 6.51002 16.7696L15.07 12.4896C18.91 10.5696 18.91 7.42965 15.07 5.50965ZM11.84 9.74965H6.44002C6.03002 9.74965 5.69002 9.40965 5.69002 8.99965C5.69002 8.58965 6.03002 8.24965 6.44002 8.24965H11.84C12.25 8.24965 12.59 8.58965 12.59 8.99965C12.59 9.40965 12.25 9.74965 11.84 9.74965Z" fill="#7A56FE"/>
</svg>
