<svg width="33" height="32" viewBox="0 0 33 32" fill="none" xmlns="http://www.w3.org/2000/svg">
<path fill-rule="evenodd" clip-rule="evenodd" d="M16.6528 7.02582C18.7433 7.05412 20.6665 7.81146 22.1687 9.05C22.2164 9.08906 22.2667 9.12285 22.3189 9.1514C22.6843 9.35127 23.1429 9.29453 23.4437 8.99375L26.1375 6.3C26.5312 5.90625 26.5 5.2625 26.0812 4.9C23.9684 3.05964 21.3313 1.81969 18.4377 1.4375C17.8132 1.35503 17.1769 1.3125 16.5312 1.3125C16.5312 1.3125 16.5312 1.3125 16.5312 1.3125C11.1375 1.3125 6.41877 4.24998 3.90001 8.6187L3.9 8.61869C2.65 10.7624 1.9375 13.2499 1.9375 15.9062C1.9375 18.5624 2.65 21.0499 3.9 23.1937L8.85 20.3437C8.0875 19.0374 7.65 17.5249 7.65 15.9062C7.65 14.2875 8.09374 12.775 8.84997 11.4687L8.84998 11.4688C10.3875 8.81875 13.25 7.025 16.5312 7.025C16.5312 7.025 16.5312 7.025 16.5312 7.025C16.5396 7.025 16.5479 7.02501 16.5563 7.02503C16.5885 7.02512 16.6206 7.02539 16.6528 7.02582ZM18.1188 13.3687H30.0251C30.4813 13.3687 30.8751 13.6999 30.9626 14.1562C31.0688 14.7499 31.1251 15.2812 31.1251 16.0249C31.1251 21.2312 28.4126 25.8874 23.8313 28.5374L20.9751 23.5874C22.7188 22.5749 24.0938 20.9812 24.8251 19.0749H18.1188C17.5938 19.0749 17.1688 18.6499 17.1688 18.1249V14.3187C17.1688 13.7937 17.5938 13.3687 18.1188 13.3687ZM8.84998 20.3438C10.3875 22.9937 13.25 24.7875 16.5312 24.7875H16.5312V24.7874C18.15 24.7874 19.6625 24.3437 20.9688 23.5874L20.9703 23.5902L20.975 23.5875L23.8312 28.5375V28.5438C21.675 29.7875 19.1812 30.5 16.5312 30.5C11.1375 30.5 6.41873 27.5625 3.89998 23.1938L8.84998 20.3438Z" fill="#7A838C"/>
</svg>
