<svg width="28" height="24" viewBox="0 0 28 24" fill="none" xmlns="http://www.w3.org/2000/svg">
<path fill-rule="evenodd" clip-rule="evenodd" d="M0.465747 6.75139C1.46311 3.21684 4.71195 0.626953 8.55388 0.626953C10.6667 0.626953 12.5157 1.52011 13.9921 2.81016C15.4689 1.51974 17.3178 0.626953 19.4303 0.626953C23.4528 0.626953 26.8262 3.4677 27.645 7.25764C27.7975 7.83918 27.8591 8.42776 27.8487 9.00776C27.8277 10.2303 27.5155 11.4083 27.1151 12.4368C25.9583 15.4127 23.831 18.0945 21.4415 20.0741C19.052 22.0536 16.4142 23.3726 13.9901 23.3726C11.5768 23.3726 8.95833 22.064 6.5803 20.0978C4.21016 18.1381 2.0963 15.4817 0.914648 12.5337C0.0856762 10.7234 -0.0750971 8.66674 0.465747 6.75139Z" fill="url(#paint0_linear_14_86)"/>
<defs>
<linearGradient id="paint0_linear_14_86" x1="23.6689" y1="-6.59633" x2="4.88751" y2="19.0892" gradientUnits="userSpaceOnUse">
<stop stop-color="#FF957D"/>
<stop offset="1" stop-color="#F85C5C"/>
</linearGradient>
</defs>
</svg>
